<mxfile host="app.diagrams.net" agent="Mozilla/5.0 (X11; Linux x86_64; rv:135.0) Gecko/20100101 Firefox/135.0" version="26.0.11" pages="5">
  <diagram id="6xFl7qgoDEbDULcaQLgE" name="High-Level Architecture Diagram">
    <mxGraphModel dx="1869" dy="1064" grid="1" gridSize="10" guides="1" tooltips="1" connect="1" arrows="1" fold="1" page="1" pageScale="1" pageWidth="1169" pageHeight="827" math="0" shadow="0">
      <root>
        <mxCell id="0" />
        <mxCell id="1" parent="0" />
        <mxCell id="xP-5OCh6lqP18N_bFEpL-1" value="Input Handling" style="rounded=0;whiteSpace=wrap;html=1;fillColor=#fff2cc;strokeColor=#d6b656;" vertex="1" parent="1">
          <mxGeometry x="70" y="296" width="120" height="60" as="geometry" />
        </mxCell>
        <mxCell id="xP-5OCh6lqP18N_bFEpL-2" value="Parser &amp;amp; Lexer" style="rounded=0;whiteSpace=wrap;html=1;fillColor=#fff2cc;strokeColor=#d6b656;" vertex="1" parent="1">
          <mxGeometry x="70" y="366" width="120" height="60" as="geometry" />
        </mxCell>
        <mxCell id="xP-5OCh6lqP18N_bFEpL-3" value="Execution Manager" style="rounded=0;whiteSpace=wrap;html=1;fillColor=#d5e8d4;strokeColor=#82b366;" vertex="1" parent="1">
          <mxGeometry x="70" y="436" width="120" height="60" as="geometry" />
        </mxCell>
        <mxCell id="xP-5OCh6lqP18N_bFEpL-4" value="&lt;div&gt;Built-In Commands&lt;/div&gt;" style="rounded=0;whiteSpace=wrap;html=1;fillColor=#d5e8d4;strokeColor=#82b366;" vertex="1" parent="1">
          <mxGeometry x="70" y="506" width="120" height="60" as="geometry" />
        </mxCell>
        <mxCell id="xP-5OCh6lqP18N_bFEpL-5" value="&lt;div&gt;Redirections &amp;amp; Pipies&lt;/div&gt;" style="rounded=0;whiteSpace=wrap;html=1;fillColor=#d5e8d4;strokeColor=#82b366;" vertex="1" parent="1">
          <mxGeometry x="70" y="576" width="120" height="60" as="geometry" />
        </mxCell>
        <mxCell id="xP-5OCh6lqP18N_bFEpL-6" value="&lt;div align=&quot;center&quot;&gt;&lt;b&gt;&lt;font style=&quot;font-size: 24px;&quot;&gt;Modules&lt;/font&gt;&lt;/b&gt;&lt;/div&gt;" style="text;html=1;align=center;verticalAlign=middle;whiteSpace=wrap;rounded=0;" vertex="1" parent="1">
          <mxGeometry x="70" y="253" width="120" height="30" as="geometry" />
        </mxCell>
        <mxCell id="xP-5OCh6lqP18N_bFEpL-10" style="edgeStyle=orthogonalEdgeStyle;rounded=0;orthogonalLoop=1;jettySize=auto;html=1;exitX=1;exitY=0.5;exitDx=0;exitDy=0;entryX=0;entryY=0.5;entryDx=0;entryDy=0;" edge="1" parent="1" source="xP-5OCh6lqP18N_bFEpL-7" target="xP-5OCh6lqP18N_bFEpL-8">
          <mxGeometry relative="1" as="geometry" />
        </mxCell>
        <mxCell id="xP-5OCh6lqP18N_bFEpL-7" value="User Input" style="rounded=0;whiteSpace=wrap;html=1;fillColor=#fff2cc;strokeColor=#d6b656;" vertex="1" parent="1">
          <mxGeometry x="40" y="40" width="80" height="60" as="geometry" />
        </mxCell>
        <mxCell id="xP-5OCh6lqP18N_bFEpL-13" value="" style="edgeStyle=orthogonalEdgeStyle;rounded=0;orthogonalLoop=1;jettySize=auto;html=1;" edge="1" parent="1" source="xP-5OCh6lqP18N_bFEpL-8" target="xP-5OCh6lqP18N_bFEpL-11">
          <mxGeometry relative="1" as="geometry" />
        </mxCell>
        <mxCell id="xP-5OCh6lqP18N_bFEpL-8" value="&lt;div&gt;Lexer&lt;br&gt;&lt;/div&gt;" style="rounded=0;whiteSpace=wrap;html=1;fillColor=#fff2cc;strokeColor=#d6b656;" vertex="1" parent="1">
          <mxGeometry x="160" y="40" width="80" height="60" as="geometry" />
        </mxCell>
        <mxCell id="xP-5OCh6lqP18N_bFEpL-16" value="" style="edgeStyle=orthogonalEdgeStyle;rounded=0;orthogonalLoop=1;jettySize=auto;html=1;" edge="1" parent="1" source="xP-5OCh6lqP18N_bFEpL-11" target="xP-5OCh6lqP18N_bFEpL-14">
          <mxGeometry relative="1" as="geometry" />
        </mxCell>
        <mxCell id="xP-5OCh6lqP18N_bFEpL-11" value="Parser" style="rounded=0;whiteSpace=wrap;html=1;fillColor=#fff2cc;strokeColor=#d6b656;" vertex="1" parent="1">
          <mxGeometry x="280" y="40" width="80" height="60" as="geometry" />
        </mxCell>
        <mxCell id="xP-5OCh6lqP18N_bFEpL-19" value="" style="edgeStyle=orthogonalEdgeStyle;rounded=0;orthogonalLoop=1;jettySize=auto;html=1;" edge="1" parent="1" source="xP-5OCh6lqP18N_bFEpL-14" target="xP-5OCh6lqP18N_bFEpL-17">
          <mxGeometry relative="1" as="geometry" />
        </mxCell>
        <mxCell id="xP-5OCh6lqP18N_bFEpL-14" value="Execution" style="rounded=0;whiteSpace=wrap;html=1;fillColor=#d5e8d4;strokeColor=#82b366;" vertex="1" parent="1">
          <mxGeometry x="400" y="40" width="80" height="60" as="geometry" />
        </mxCell>
        <mxCell id="xP-5OCh6lqP18N_bFEpL-23" value="" style="edgeStyle=orthogonalEdgeStyle;rounded=0;orthogonalLoop=1;jettySize=auto;html=1;" edge="1" parent="1" source="xP-5OCh6lqP18N_bFEpL-17" target="xP-5OCh6lqP18N_bFEpL-20">
          <mxGeometry relative="1" as="geometry" />
        </mxCell>
        <mxCell id="xP-5OCh6lqP18N_bFEpL-17" value="Process Handling" style="rounded=0;whiteSpace=wrap;html=1;fillColor=#d5e8d4;strokeColor=#82b366;" vertex="1" parent="1">
          <mxGeometry x="520" y="40" width="120" height="60" as="geometry" />
        </mxCell>
        <mxCell id="xP-5OCh6lqP18N_bFEpL-20" value="Output" style="rounded=0;whiteSpace=wrap;html=1;fillColor=#d5e8d4;strokeColor=#82b366;" vertex="1" parent="1">
          <mxGeometry x="680" y="40" width="80" height="60" as="geometry" />
        </mxCell>
      </root>
    </mxGraphModel>
  </diagram>
  <diagram id="yPxyJZ8AM_hMuL3Unpa9" name="gitflow">
    <mxGraphModel dx="1794" dy="1084" grid="1" gridSize="10" guides="1" tooltips="1" connect="1" arrows="1" fold="1" page="1" pageScale="1" pageWidth="850" pageHeight="1100" math="0" shadow="0">
      <root>
        <mxCell id="0" />
        <mxCell id="1" parent="0" />
        <mxCell id="3" value="" style="endArrow=none;dashed=1;html=1;fillColor=#dae8fc;strokeColor=#6c8ebf;" parent="1" source="12" target="7" edge="1">
          <mxGeometry width="50" height="50" relative="1" as="geometry">
            <mxPoint x="40" y="70" as="sourcePoint" />
            <mxPoint x="720" y="70" as="targetPoint" />
          </mxGeometry>
        </mxCell>
        <mxCell id="22" style="edgeStyle=orthogonalEdgeStyle;rounded=1;orthogonalLoop=1;jettySize=auto;html=1;dashed=1;endArrow=none;endFill=0;fillColor=#d5e8d4;strokeColor=#82b366;" parent="1" source="4" target="21" edge="1">
          <mxGeometry relative="1" as="geometry">
            <Array as="points">
              <mxPoint x="40" y="180" />
            </Array>
          </mxGeometry>
        </mxCell>
        <mxCell id="4" value="1.0" style="ellipse;whiteSpace=wrap;html=1;aspect=fixed;fillColor=#dae8fc;strokeColor=#6c8ebf;fontStyle=1;labelPosition=center;verticalLabelPosition=top;align=center;verticalAlign=bottom;fontColor=#0066CC;" parent="1" vertex="1">
          <mxGeometry x="30" y="60" width="20" height="20" as="geometry" />
        </mxCell>
        <mxCell id="7" value="Master" style="text;html=1;strokeColor=#6c8ebf;fillColor=#dae8fc;align=center;verticalAlign=middle;whiteSpace=wrap;rounded=0;" parent="1" vertex="1">
          <mxGeometry x="820" y="60" width="90" height="20" as="geometry" />
        </mxCell>
        <mxCell id="8" value="" style="endArrow=none;dashed=1;html=1;fillColor=#f8cecc;strokeColor=#b85450;entryX=0;entryY=0.5;entryDx=0;entryDy=0;endFill=0;" parent="1" source="9" target="12" edge="1">
          <mxGeometry width="50" height="50" relative="1" as="geometry">
            <mxPoint x="40" y="150" as="sourcePoint" />
            <mxPoint x="600" y="122" as="targetPoint" />
            <Array as="points">
              <mxPoint x="710" y="100" />
              <mxPoint x="710" y="70" />
            </Array>
          </mxGeometry>
        </mxCell>
        <mxCell id="93" style="edgeStyle=orthogonalEdgeStyle;rounded=1;orthogonalLoop=1;jettySize=auto;html=1;dashed=1;endArrow=none;endFill=0;fontSize=12;fontColor=#FFB570;fillColor=#d5e8d4;strokeColor=#82b366;entryX=0;entryY=0.5;entryDx=0;entryDy=0;exitX=0.5;exitY=1;exitDx=0;exitDy=0;" parent="1" source="12" target="78" edge="1">
          <mxGeometry relative="1" as="geometry">
            <Array as="points">
              <mxPoint x="730" y="180" />
            </Array>
          </mxGeometry>
        </mxCell>
        <mxCell id="9" value="" style="ellipse;whiteSpace=wrap;html=1;aspect=fixed;fillColor=#f8cecc;strokeColor=#b85450;" parent="1" vertex="1">
          <mxGeometry x="674" y="90" width="20" height="20" as="geometry" />
        </mxCell>
        <mxCell id="12" value="2.1" style="ellipse;whiteSpace=wrap;html=1;aspect=fixed;fillColor=#dae8fc;strokeColor=#6c8ebf;fontStyle=1;labelPosition=center;verticalLabelPosition=top;align=center;verticalAlign=bottom;fontColor=#0066CC;" parent="1" vertex="1">
          <mxGeometry x="720" y="60" width="20" height="20" as="geometry" />
        </mxCell>
        <mxCell id="13" value="" style="endArrow=none;dashed=1;html=1;fillColor=#dae8fc;strokeColor=#6c8ebf;" parent="1" source="6" target="12" edge="1">
          <mxGeometry width="50" height="50" relative="1" as="geometry">
            <mxPoint x="50" y="70" as="sourcePoint" />
            <mxPoint x="700" y="70" as="targetPoint" />
          </mxGeometry>
        </mxCell>
        <mxCell id="19" style="edgeStyle=orthogonalEdgeStyle;rounded=1;orthogonalLoop=1;jettySize=auto;html=1;fillColor=#f8cecc;strokeColor=#b85450;dashed=1;endArrow=none;endFill=0;" parent="1" source="6" target="9" edge="1">
          <mxGeometry relative="1" as="geometry">
            <Array as="points">
              <mxPoint x="650" y="100" />
            </Array>
          </mxGeometry>
        </mxCell>
        <mxCell id="20" value="Hotfix" style="text;html=1;strokeColor=#b85450;fillColor=#f8cecc;align=center;verticalAlign=middle;whiteSpace=wrap;rounded=0;" parent="1" vertex="1">
          <mxGeometry x="820" y="90" width="90" height="20" as="geometry" />
        </mxCell>
        <mxCell id="23" style="edgeStyle=orthogonalEdgeStyle;rounded=1;orthogonalLoop=1;jettySize=auto;html=1;dashed=1;endArrow=none;endFill=0;fillColor=#d5e8d4;strokeColor=#82b366;" parent="1" source="78" target="24" edge="1">
          <mxGeometry relative="1" as="geometry">
            <mxPoint x="700" y="180" as="targetPoint" />
          </mxGeometry>
        </mxCell>
        <mxCell id="73" style="edgeStyle=orthogonalEdgeStyle;rounded=1;orthogonalLoop=1;jettySize=auto;html=1;dashed=1;endArrow=none;endFill=0;fontSize=10;fontColor=#FFB570;fillColor=#e1d5e7;strokeColor=#9673a6;" parent="1" source="21" target="51" edge="1">
          <mxGeometry relative="1" as="geometry">
            <Array as="points">
              <mxPoint x="90" y="190" />
            </Array>
          </mxGeometry>
        </mxCell>
        <mxCell id="172" style="edgeStyle=orthogonalEdgeStyle;rounded=1;orthogonalLoop=1;jettySize=auto;html=1;dashed=1;endArrow=none;endFill=0;fontSize=12;fontColor=#FFB570;fillColor=#e1d5e7;strokeColor=#9673a6;" parent="1" source="21" target="63" edge="1">
          <mxGeometry relative="1" as="geometry">
            <Array as="points">
              <mxPoint x="90" y="240" />
            </Array>
          </mxGeometry>
        </mxCell>
        <mxCell id="21" value="" style="ellipse;whiteSpace=wrap;html=1;aspect=fixed;fillColor=#d5e8d4;strokeColor=#82b366;" parent="1" vertex="1">
          <mxGeometry x="80" y="170" width="20" height="20" as="geometry" />
        </mxCell>
        <mxCell id="24" value="Nightly" style="text;html=1;strokeColor=#82b366;fillColor=#d5e8d4;align=center;verticalAlign=middle;whiteSpace=wrap;rounded=0;" parent="1" vertex="1">
          <mxGeometry x="820" y="170" width="90" height="20" as="geometry" />
        </mxCell>
        <mxCell id="25" value="" style="ellipse;whiteSpace=wrap;html=1;aspect=fixed;fillColor=#d5e8d4;strokeColor=#82b366;" parent="1" vertex="1">
          <mxGeometry x="166.97" y="170" width="20" height="20" as="geometry" />
        </mxCell>
        <mxCell id="26" style="edgeStyle=orthogonalEdgeStyle;rounded=1;orthogonalLoop=1;jettySize=auto;html=1;dashed=1;endArrow=none;endFill=0;fillColor=#d5e8d4;strokeColor=#82b366;" parent="1" source="21" target="25" edge="1">
          <mxGeometry relative="1" as="geometry">
            <mxPoint x="680" y="180" as="targetPoint" />
            <mxPoint x="110" y="180" as="sourcePoint" />
          </mxGeometry>
        </mxCell>
        <mxCell id="114" style="edgeStyle=orthogonalEdgeStyle;rounded=1;orthogonalLoop=1;jettySize=auto;html=1;dashed=1;endArrow=none;endFill=0;fontSize=12;fontColor=#FFB570;fillColor=#e1d5e7;strokeColor=#9673a6;entryX=0;entryY=0.5;entryDx=0;entryDy=0;" parent="1" source="27" target="65" edge="1">
          <mxGeometry relative="1" as="geometry">
            <Array as="points">
              <mxPoint x="280" y="240" />
            </Array>
          </mxGeometry>
        </mxCell>
        <mxCell id="27" value="" style="ellipse;whiteSpace=wrap;html=1;aspect=fixed;fillColor=#d5e8d4;strokeColor=#82b366;" parent="1" vertex="1">
          <mxGeometry x="269.97" y="170" width="20" height="20" as="geometry" />
        </mxCell>
        <mxCell id="28" style="edgeStyle=orthogonalEdgeStyle;rounded=1;orthogonalLoop=1;jettySize=auto;html=1;dashed=1;endArrow=none;endFill=0;fillColor=#d5e8d4;strokeColor=#82b366;" parent="1" source="25" target="27" edge="1">
          <mxGeometry relative="1" as="geometry">
            <mxPoint x="680" y="180" as="targetPoint" />
            <mxPoint x="240" y="180" as="sourcePoint" />
          </mxGeometry>
        </mxCell>
        <mxCell id="44" style="edgeStyle=orthogonalEdgeStyle;rounded=1;orthogonalLoop=1;jettySize=auto;html=1;dashed=1;endArrow=none;endFill=0;fontSize=10;fontColor=#FFB570;fillColor=#ffe6cc;strokeColor=#d79b00;" parent="1" source="29" target="39" edge="1">
          <mxGeometry relative="1" as="geometry">
            <Array as="points">
              <mxPoint x="400" y="130" />
            </Array>
          </mxGeometry>
        </mxCell>
        <mxCell id="29" value="" style="ellipse;whiteSpace=wrap;html=1;aspect=fixed;fillColor=#d5e8d4;strokeColor=#82b366;" parent="1" vertex="1">
          <mxGeometry x="389.97" y="170" width="20" height="20" as="geometry" />
        </mxCell>
        <mxCell id="30" style="edgeStyle=orthogonalEdgeStyle;rounded=1;orthogonalLoop=1;jettySize=auto;html=1;dashed=1;endArrow=none;endFill=0;fillColor=#d5e8d4;strokeColor=#82b366;" parent="1" source="27" target="29" edge="1">
          <mxGeometry relative="1" as="geometry">
            <mxPoint x="680" y="180" as="targetPoint" />
            <mxPoint x="370" y="180" as="sourcePoint" />
          </mxGeometry>
        </mxCell>
        <mxCell id="177" style="edgeStyle=orthogonalEdgeStyle;rounded=1;orthogonalLoop=1;jettySize=auto;html=1;entryX=0;entryY=0.5;entryDx=0;entryDy=0;dashed=1;fillColor=#d5e8d4;strokeColor=#82b366;endArrow=none;endFill=0;" parent="1" source="6" target="92" edge="1">
          <mxGeometry relative="1" as="geometry">
            <Array as="points">
              <mxPoint x="650" y="180" />
            </Array>
          </mxGeometry>
        </mxCell>
        <mxCell id="6" value="2.0" style="ellipse;whiteSpace=wrap;html=1;aspect=fixed;fillColor=#dae8fc;strokeColor=#6c8ebf;fontStyle=1;labelPosition=center;verticalLabelPosition=top;align=center;verticalAlign=bottom;fontColor=#0066CC;" parent="1" vertex="1">
          <mxGeometry x="640" y="60" width="20" height="20" as="geometry" />
        </mxCell>
        <mxCell id="35" value="" style="endArrow=none;dashed=1;html=1;fillColor=#dae8fc;strokeColor=#6c8ebf;" parent="1" source="4" target="6" edge="1">
          <mxGeometry width="50" height="50" relative="1" as="geometry">
            <mxPoint x="49.9999999999917" y="70" as="sourcePoint" />
            <mxPoint x="690" y="70" as="targetPoint" />
            <Array as="points" />
          </mxGeometry>
        </mxCell>
        <mxCell id="43" style="edgeStyle=orthogonalEdgeStyle;rounded=1;orthogonalLoop=1;jettySize=auto;html=1;dashed=1;endArrow=none;endFill=0;fontSize=10;fontColor=#FFB570;fillColor=#ffe6cc;strokeColor=#d79b00;" parent="1" source="36" target="6" edge="1">
          <mxGeometry relative="1" as="geometry">
            <Array as="points">
              <mxPoint x="630" y="130" />
              <mxPoint x="630" y="70" />
            </Array>
          </mxGeometry>
        </mxCell>
        <mxCell id="162" style="edgeStyle=orthogonalEdgeStyle;rounded=1;orthogonalLoop=1;jettySize=auto;html=1;dashed=1;endArrow=none;endFill=0;fontSize=12;fontColor=#FFB570;entryX=0;entryY=0.5;entryDx=0;entryDy=0;fillColor=#ffe6cc;strokeColor=#d79b00;" parent="1" source="36" target="159" edge="1">
          <mxGeometry relative="1" as="geometry">
            <Array as="points">
              <mxPoint x="530" y="150" />
            </Array>
          </mxGeometry>
        </mxCell>
        <mxCell id="36" value="RC2" style="ellipse;whiteSpace=wrap;html=1;aspect=fixed;fontSize=10;labelPosition=center;verticalLabelPosition=top;align=center;verticalAlign=bottom;fillColor=#ffe6cc;strokeColor=#d79b00;fontColor=#FFB570;" parent="1" vertex="1">
          <mxGeometry x="520" y="120" width="20" height="20" as="geometry" />
        </mxCell>
        <mxCell id="41" style="edgeStyle=orthogonalEdgeStyle;rounded=1;orthogonalLoop=1;jettySize=auto;html=1;dashed=1;endArrow=none;endFill=0;fontSize=10;fontColor=#FFB570;fillColor=#ffe6cc;strokeColor=#d79b00;" parent="1" source="39" target="36" edge="1">
          <mxGeometry relative="1" as="geometry" />
        </mxCell>
        <mxCell id="39" value="RC1" style="ellipse;whiteSpace=wrap;html=1;aspect=fixed;fontSize=10;labelPosition=center;verticalLabelPosition=top;align=center;verticalAlign=bottom;fillColor=#ffe6cc;strokeColor=#d79b00;fontColor=#FFB570;" parent="1" vertex="1">
          <mxGeometry x="414.65999999999997" y="120" width="20" height="20" as="geometry" />
        </mxCell>
        <mxCell id="42" value="Release" style="text;html=1;strokeColor=#d79b00;fillColor=#ffe6cc;align=center;verticalAlign=middle;whiteSpace=wrap;rounded=0;fontSize=12;" parent="1" vertex="1">
          <mxGeometry x="820" y="120" width="90" height="20" as="geometry" />
        </mxCell>
        <mxCell id="74" style="edgeStyle=orthogonalEdgeStyle;rounded=1;orthogonalLoop=1;jettySize=auto;html=1;dashed=1;endArrow=none;endFill=0;fontSize=10;fontColor=#FFB570;fillColor=#e1d5e7;strokeColor=#9673a6;" parent="1" source="51" target="52" edge="1">
          <mxGeometry relative="1" as="geometry" />
        </mxCell>
        <mxCell id="147" style="edgeStyle=orthogonalEdgeStyle;rounded=1;orthogonalLoop=1;jettySize=auto;html=1;dashed=1;endArrow=none;endFill=0;fontSize=12;fontColor=#FFB570;jumpStyle=arc;jumpSize=6;" parent="1" source="51" target="69" edge="1">
          <mxGeometry relative="1" as="geometry">
            <Array as="points">
              <mxPoint x="130" y="280" />
            </Array>
          </mxGeometry>
        </mxCell>
        <mxCell id="76" style="edgeStyle=orthogonalEdgeStyle;rounded=1;orthogonalLoop=1;jettySize=auto;html=1;dashed=1;endArrow=none;endFill=0;fontSize=10;fontColor=#FFB570;fillColor=#e1d5e7;strokeColor=#9673a6;entryX=0;entryY=0.5;entryDx=0;entryDy=0;" parent="1" source="52" target="27" edge="1">
          <mxGeometry relative="1" as="geometry">
            <Array as="points">
              <mxPoint x="250" y="210" />
              <mxPoint x="250" y="180" />
            </Array>
          </mxGeometry>
        </mxCell>
        <mxCell id="52" value="" style="ellipse;whiteSpace=wrap;html=1;aspect=fixed;fontSize=10;fillColor=#e1d5e7;strokeColor=#9673a6;" parent="1" vertex="1">
          <mxGeometry x="209.97" y="200" width="20" height="20" as="geometry" />
        </mxCell>
        <mxCell id="152" style="edgeStyle=orthogonalEdgeStyle;rounded=1;orthogonalLoop=1;jettySize=auto;html=1;dashed=1;endArrow=none;endFill=0;fontSize=12;fontColor=#FFB570;" parent="1" source="63" target="89" edge="1">
          <mxGeometry relative="1" as="geometry">
            <Array as="points">
              <mxPoint x="110" y="310" />
            </Array>
          </mxGeometry>
        </mxCell>
        <mxCell id="63" value="" style="ellipse;whiteSpace=wrap;html=1;aspect=fixed;fontSize=10;fillColor=#e1d5e7;strokeColor=#9673a6;" parent="1" vertex="1">
          <mxGeometry x="100" y="230" width="20" height="20" as="geometry" />
        </mxCell>
        <mxCell id="99" style="edgeStyle=orthogonalEdgeStyle;rounded=1;orthogonalLoop=1;jettySize=auto;html=1;dashed=1;endArrow=none;endFill=0;fontSize=12;fontColor=#FFB570;fillColor=#e1d5e7;strokeColor=#9673a6;" parent="1" source="65" target="71" edge="1">
          <mxGeometry relative="1" as="geometry" />
        </mxCell>
        <mxCell id="156" style="edgeStyle=orthogonalEdgeStyle;rounded=1;orthogonalLoop=1;jettySize=auto;html=1;dashed=1;endArrow=none;endFill=0;fontSize=12;fontColor=#FFB570;fillColor=#f5f5f5;strokeColor=#666666;" parent="1" source="65" target="91" edge="1">
          <mxGeometry relative="1" as="geometry">
            <Array as="points">
              <mxPoint x="300" y="310" />
            </Array>
          </mxGeometry>
        </mxCell>
        <mxCell id="65" value="" style="ellipse;whiteSpace=wrap;html=1;aspect=fixed;fontSize=10;fillColor=#e1d5e7;strokeColor=#9673a6;" parent="1" vertex="1">
          <mxGeometry x="289.97" y="230" width="20" height="20" as="geometry" />
        </mxCell>
        <mxCell id="118" style="edgeStyle=orthogonalEdgeStyle;rounded=1;orthogonalLoop=1;jettySize=auto;html=1;exitX=1;exitY=0.5;exitDx=0;exitDy=0;entryX=0;entryY=0.5;entryDx=0;entryDy=0;dashed=1;endArrow=none;endFill=0;fontSize=12;fontColor=#FFB570;" parent="1" source="69" target="88" edge="1">
          <mxGeometry relative="1" as="geometry" />
        </mxCell>
        <mxCell id="69" value="" style="ellipse;whiteSpace=wrap;html=1;aspect=fixed;fontSize=10;fontColor=#333333;fillColor=#f5f5f5;strokeColor=#666666;" parent="1" vertex="1">
          <mxGeometry x="139.97" y="270" width="20" height="20" as="geometry" />
        </mxCell>
        <mxCell id="100" style="edgeStyle=orthogonalEdgeStyle;rounded=1;orthogonalLoop=1;jettySize=auto;html=1;dashed=1;endArrow=none;endFill=0;fontSize=12;fontColor=#FFB570;fillColor=#e1d5e7;strokeColor=#9673a6;entryX=0;entryY=0.5;entryDx=0;entryDy=0;" parent="1" source="71" target="29" edge="1">
          <mxGeometry relative="1" as="geometry">
            <mxPoint x="400" y="190" as="targetPoint" />
            <Array as="points">
              <mxPoint x="380" y="240" />
              <mxPoint x="380" y="180" />
            </Array>
          </mxGeometry>
        </mxCell>
        <mxCell id="71" value="" style="ellipse;whiteSpace=wrap;html=1;aspect=fixed;fontSize=10;fillColor=#e1d5e7;strokeColor=#9673a6;" parent="1" vertex="1">
          <mxGeometry x="345.97" y="230" width="20" height="20" as="geometry" />
        </mxCell>
        <mxCell id="82" style="edgeStyle=orthogonalEdgeStyle;rounded=1;orthogonalLoop=1;jettySize=auto;html=1;dashed=1;endArrow=none;endFill=0;fillColor=#d5e8d4;strokeColor=#82b366;" parent="1" source="29" target="92" edge="1">
          <mxGeometry relative="1" as="geometry">
            <mxPoint x="500" y="160" as="targetPoint" />
            <mxPoint x="460" y="160" as="sourcePoint" />
          </mxGeometry>
        </mxCell>
        <mxCell id="85" value="Feature team 1" style="text;html=1;strokeColor=#9673a6;fillColor=#e1d5e7;align=center;verticalAlign=middle;whiteSpace=wrap;rounded=0;" parent="1" vertex="1">
          <mxGeometry x="820" y="200" width="90" height="20" as="geometry" />
        </mxCell>
        <mxCell id="86" value="Feature team 2" style="text;html=1;strokeColor=#9673a6;fillColor=#e1d5e7;align=center;verticalAlign=middle;whiteSpace=wrap;rounded=0;" parent="1" vertex="1">
          <mxGeometry x="820" y="230" width="90" height="20" as="geometry" />
        </mxCell>
        <mxCell id="151" style="edgeStyle=orthogonalEdgeStyle;rounded=1;orthogonalLoop=1;jettySize=auto;html=1;dashed=1;endArrow=none;endFill=0;fontSize=12;fontColor=#FFB570;jumpStyle=arc;entryX=0;entryY=0.5;entryDx=0;entryDy=0;" parent="1" source="88" target="52" edge="1">
          <mxGeometry relative="1" as="geometry">
            <Array as="points">
              <mxPoint x="200" y="280" />
              <mxPoint x="200" y="210" />
            </Array>
          </mxGeometry>
        </mxCell>
        <mxCell id="88" value="" style="ellipse;whiteSpace=wrap;html=1;aspect=fixed;fontSize=10;fontColor=#333333;fillColor=#f5f5f5;strokeColor=#666666;" parent="1" vertex="1">
          <mxGeometry x="170.97" y="270" width="20" height="20" as="geometry" />
        </mxCell>
        <mxCell id="153" style="edgeStyle=orthogonalEdgeStyle;rounded=1;orthogonalLoop=1;jettySize=auto;html=1;dashed=1;endArrow=none;endFill=0;fontSize=12;fontColor=#FFB570;" parent="1" source="89" target="90" edge="1">
          <mxGeometry relative="1" as="geometry" />
        </mxCell>
        <mxCell id="89" value="" style="ellipse;whiteSpace=wrap;html=1;aspect=fixed;fontSize=10;fontColor=#333333;fillColor=#f5f5f5;strokeColor=#666666;" parent="1" vertex="1">
          <mxGeometry x="179.97" y="300" width="20" height="20" as="geometry" />
        </mxCell>
        <mxCell id="154" style="edgeStyle=orthogonalEdgeStyle;rounded=1;orthogonalLoop=1;jettySize=auto;html=1;dashed=1;endArrow=none;endFill=0;fontSize=12;fontColor=#FFB570;" parent="1" source="90" target="91" edge="1">
          <mxGeometry relative="1" as="geometry" />
        </mxCell>
        <mxCell id="90" value="" style="ellipse;whiteSpace=wrap;html=1;aspect=fixed;fontSize=10;fontColor=#333333;fillColor=#f5f5f5;strokeColor=#666666;" parent="1" vertex="1">
          <mxGeometry x="240.00000000000003" y="300" width="20" height="20" as="geometry" />
        </mxCell>
        <mxCell id="157" style="edgeStyle=orthogonalEdgeStyle;rounded=1;orthogonalLoop=1;jettySize=auto;html=1;dashed=1;endArrow=none;endFill=0;fontSize=12;fontColor=#FFB570;entryX=0;entryY=0.5;entryDx=0;entryDy=0;" parent="1" source="91" target="71" edge="1">
          <mxGeometry relative="1" as="geometry">
            <Array as="points">
              <mxPoint x="340" y="310" />
              <mxPoint x="340" y="240" />
            </Array>
          </mxGeometry>
        </mxCell>
        <mxCell id="91" value="" style="ellipse;whiteSpace=wrap;html=1;aspect=fixed;fontSize=10;fontColor=#333333;fillColor=#f5f5f5;strokeColor=#666666;" parent="1" vertex="1">
          <mxGeometry x="312" y="300" width="20" height="20" as="geometry" />
        </mxCell>
        <mxCell id="164" style="edgeStyle=orthogonalEdgeStyle;rounded=1;orthogonalLoop=1;jettySize=auto;html=1;dashed=1;endArrow=none;endFill=0;fontSize=12;fontColor=#FFB570;fillColor=#ffe6cc;strokeColor=#d79b00;" parent="1" source="95" target="103" edge="1">
          <mxGeometry relative="1" as="geometry" />
        </mxCell>
        <mxCell id="95" value="" style="ellipse;whiteSpace=wrap;html=1;aspect=fixed;fontSize=10;fillColor=#ffe6cc;strokeColor=#d79b00;" parent="1" vertex="1">
          <mxGeometry x="434.66" y="140" width="20" height="20" as="geometry" />
        </mxCell>
        <mxCell id="102" value="Development" style="text;html=1;strokeColor=#666666;fillColor=#f5f5f5;align=center;verticalAlign=middle;whiteSpace=wrap;rounded=0;fontColor=#333333;" parent="1" vertex="1">
          <mxGeometry x="820" y="290" width="90" height="20" as="geometry" />
        </mxCell>
        <mxCell id="108" style="edgeStyle=orthogonalEdgeStyle;rounded=1;orthogonalLoop=1;jettySize=auto;html=1;dashed=1;endArrow=none;endFill=0;fontSize=12;fontColor=#FFB570;fillColor=#ffe6cc;strokeColor=#d79b00;entryX=0;entryY=0.5;entryDx=0;entryDy=0;" parent="1" source="103" target="36" edge="1">
          <mxGeometry relative="1" as="geometry">
            <mxPoint x="490" y="100" as="targetPoint" />
            <Array as="points">
              <mxPoint x="510" y="150" />
              <mxPoint x="510" y="130" />
            </Array>
          </mxGeometry>
        </mxCell>
        <mxCell id="103" value="" style="ellipse;whiteSpace=wrap;html=1;aspect=fixed;fontSize=10;fillColor=#ffe6cc;strokeColor=#d79b00;" parent="1" vertex="1">
          <mxGeometry x="490" y="140" width="20" height="20" as="geometry" />
        </mxCell>
        <mxCell id="107" style="edgeStyle=orthogonalEdgeStyle;rounded=1;orthogonalLoop=1;jettySize=auto;html=1;dashed=1;endArrow=none;endFill=0;fontSize=12;fontColor=#FFB570;fillColor=#ffe6cc;strokeColor=#d79b00;" parent="1" source="39" target="95" edge="1">
          <mxGeometry relative="1" as="geometry">
            <mxPoint x="490" y="130" as="sourcePoint" />
            <mxPoint x="550" y="250" as="targetPoint" />
            <Array as="points">
              <mxPoint x="425" y="150" />
            </Array>
          </mxGeometry>
        </mxCell>
        <mxCell id="166" style="edgeStyle=orthogonalEdgeStyle;rounded=1;orthogonalLoop=1;jettySize=auto;html=1;dashed=1;endArrow=none;endFill=0;fontSize=12;fontColor=#FFB570;fillColor=#e1d5e7;strokeColor=#9673a6;" parent="1" source="92" target="165" edge="1">
          <mxGeometry relative="1" as="geometry">
            <Array as="points">
              <mxPoint x="675" y="210" />
            </Array>
          </mxGeometry>
        </mxCell>
        <mxCell id="169" style="edgeStyle=orthogonalEdgeStyle;rounded=1;orthogonalLoop=1;jettySize=auto;html=1;dashed=1;endArrow=none;endFill=0;fontSize=12;fontColor=#FFB570;fillColor=#e1d5e7;strokeColor=#9673a6;" parent="1" source="92" target="168" edge="1">
          <mxGeometry relative="1" as="geometry">
            <Array as="points">
              <mxPoint x="675" y="240" />
            </Array>
          </mxGeometry>
        </mxCell>
        <mxCell id="92" value="" style="ellipse;whiteSpace=wrap;html=1;aspect=fixed;fontSize=10;fillColor=#d5e8d4;strokeColor=#82b366;" parent="1" vertex="1">
          <mxGeometry x="664.97" y="170" width="20" height="20" as="geometry" />
        </mxCell>
        <mxCell id="116" style="edgeStyle=orthogonalEdgeStyle;rounded=1;orthogonalLoop=1;jettySize=auto;html=1;dashed=1;endArrow=none;endFill=0;fontSize=12;fontColor=#FFB570;fillColor=#e1d5e7;strokeColor=#9673a6;" parent="1" source="63" target="65" edge="1">
          <mxGeometry relative="1" as="geometry">
            <mxPoint x="159.97" y="260" as="sourcePoint" />
            <mxPoint x="209.97" y="260" as="targetPoint" />
          </mxGeometry>
        </mxCell>
        <mxCell id="125" value="Release Fixes" style="text;html=1;strokeColor=#d79b00;fillColor=#ffe6cc;align=center;verticalAlign=middle;whiteSpace=wrap;rounded=0;fontSize=12;" parent="1" vertex="1">
          <mxGeometry x="820" y="140" width="90" height="20" as="geometry" />
        </mxCell>
        <mxCell id="78" value="" style="ellipse;whiteSpace=wrap;html=1;aspect=fixed;fontSize=12;fillColor=#d5e8d4;strokeColor=#82b366;" parent="1" vertex="1">
          <mxGeometry x="750" y="170" width="20" height="20" as="geometry" />
        </mxCell>
        <mxCell id="146" style="edgeStyle=orthogonalEdgeStyle;rounded=1;orthogonalLoop=1;jettySize=auto;html=1;dashed=1;endArrow=none;endFill=0;fillColor=#d5e8d4;strokeColor=#82b366;" parent="1" source="92" target="78" edge="1">
          <mxGeometry relative="1" as="geometry">
            <mxPoint x="760" y="160" as="targetPoint" />
            <mxPoint x="670" y="160" as="sourcePoint" />
            <Array as="points" />
          </mxGeometry>
        </mxCell>
        <mxCell id="163" style="edgeStyle=orthogonalEdgeStyle;rounded=1;orthogonalLoop=1;jettySize=auto;html=1;entryX=0;entryY=0.5;entryDx=0;entryDy=0;dashed=1;endArrow=none;endFill=0;fontSize=12;fontColor=#FFB570;fillColor=#ffe6cc;strokeColor=#d79b00;" parent="1" source="159" target="160" edge="1">
          <mxGeometry relative="1" as="geometry" />
        </mxCell>
        <mxCell id="159" value="" style="ellipse;whiteSpace=wrap;html=1;aspect=fixed;fontSize=10;fillColor=#ffe6cc;strokeColor=#d79b00;" parent="1" vertex="1">
          <mxGeometry x="550" y="140" width="20" height="20" as="geometry" />
        </mxCell>
        <mxCell id="160" value="RC3" style="ellipse;whiteSpace=wrap;html=1;aspect=fixed;fontSize=10;fillColor=#ffe6cc;strokeColor=#d79b00;labelPosition=center;verticalLabelPosition=top;align=center;verticalAlign=bottom;fontColor=#FFB570;" parent="1" vertex="1">
          <mxGeometry x="600" y="120" width="20" height="20" as="geometry" />
        </mxCell>
        <mxCell id="167" style="edgeStyle=orthogonalEdgeStyle;rounded=1;orthogonalLoop=1;jettySize=auto;html=1;dashed=1;endArrow=none;endFill=0;fontSize=12;fontColor=#FFB570;fillColor=#e1d5e7;strokeColor=#9673a6;" parent="1" source="165" target="85" edge="1">
          <mxGeometry relative="1" as="geometry" />
        </mxCell>
        <mxCell id="165" value="" style="ellipse;whiteSpace=wrap;html=1;aspect=fixed;fontSize=12;fillColor=#e1d5e7;strokeColor=#9673a6;" parent="1" vertex="1">
          <mxGeometry x="695" y="200" width="20" height="20" as="geometry" />
        </mxCell>
        <mxCell id="170" style="edgeStyle=orthogonalEdgeStyle;rounded=1;orthogonalLoop=1;jettySize=auto;html=1;dashed=1;endArrow=none;endFill=0;fontSize=12;fontColor=#FFB570;fillColor=#e1d5e7;strokeColor=#9673a6;" parent="1" source="168" target="86" edge="1">
          <mxGeometry relative="1" as="geometry" />
        </mxCell>
        <mxCell id="174" style="edgeStyle=orthogonalEdgeStyle;rounded=1;orthogonalLoop=1;jettySize=auto;html=1;endArrow=none;endFill=0;dashed=1;" parent="1" source="168" target="173" edge="1">
          <mxGeometry relative="1" as="geometry">
            <Array as="points">
              <mxPoint x="705" y="300" />
            </Array>
          </mxGeometry>
        </mxCell>
        <mxCell id="168" value="" style="ellipse;whiteSpace=wrap;html=1;aspect=fixed;fontSize=12;fillColor=#e1d5e7;strokeColor=#9673a6;" parent="1" vertex="1">
          <mxGeometry x="695" y="230" width="20" height="20" as="geometry" />
        </mxCell>
        <mxCell id="51" value="" style="ellipse;whiteSpace=wrap;html=1;aspect=fixed;fontSize=10;fillColor=#e1d5e7;strokeColor=#9673a6;" parent="1" vertex="1">
          <mxGeometry x="119.97" y="200" width="20" height="20" as="geometry" />
        </mxCell>
        <mxCell id="175" style="edgeStyle=orthogonalEdgeStyle;rounded=1;orthogonalLoop=1;jettySize=auto;html=1;dashed=1;endArrow=none;endFill=0;" parent="1" source="173" target="102" edge="1">
          <mxGeometry relative="1" as="geometry" />
        </mxCell>
        <mxCell id="173" value="" style="ellipse;whiteSpace=wrap;html=1;aspect=fixed;fontSize=10;fontColor=#333333;fillColor=#f5f5f5;strokeColor=#666666;" parent="1" vertex="1">
          <mxGeometry x="725" y="290" width="20" height="20" as="geometry" />
        </mxCell>
      </root>
    </mxGraphModel>
  </diagram>
  <diagram id="NF4YVrrFj7Ot9U_z-U3u" name="Flowchart for Command Execution">
    <mxGraphModel dx="1259" dy="803" grid="1" gridSize="10" guides="1" tooltips="1" connect="1" arrows="1" fold="1" page="1" pageScale="1" pageWidth="1169" pageHeight="827" math="0" shadow="0">
      <root>
        <mxCell id="0" />
        <mxCell id="1" parent="0" />
        <mxCell id="KKOAdyj6bdC3itV2O_Yk-8" value="" style="edgeStyle=orthogonalEdgeStyle;rounded=0;orthogonalLoop=1;jettySize=auto;html=1;" parent="1" source="jiInndEEQSBKb1lb89e6-1" target="KKOAdyj6bdC3itV2O_Yk-2" edge="1">
          <mxGeometry relative="1" as="geometry" />
        </mxCell>
        <mxCell id="jiInndEEQSBKb1lb89e6-1" value="Start" style="ellipse;whiteSpace=wrap;html=1;" parent="1" vertex="1">
          <mxGeometry x="40" y="40" width="120" height="80" as="geometry" />
        </mxCell>
        <mxCell id="KKOAdyj6bdC3itV2O_Yk-1" value="Done" style="ellipse;whiteSpace=wrap;html=1;" parent="1" vertex="1">
          <mxGeometry x="1000" y="920" width="120" height="80" as="geometry" />
        </mxCell>
        <mxCell id="KKOAdyj6bdC3itV2O_Yk-9" value="" style="edgeStyle=orthogonalEdgeStyle;rounded=0;orthogonalLoop=1;jettySize=auto;html=1;" parent="1" source="KKOAdyj6bdC3itV2O_Yk-2" target="KKOAdyj6bdC3itV2O_Yk-3" edge="1">
          <mxGeometry relative="1" as="geometry" />
        </mxCell>
        <mxCell id="KKOAdyj6bdC3itV2O_Yk-2" value="Read user input" style="rounded=0;whiteSpace=wrap;html=1;fillColor=#fff2cc;strokeColor=#d6b656;" parent="1" vertex="1">
          <mxGeometry x="40" y="160" width="120" height="60" as="geometry" />
        </mxCell>
        <mxCell id="KKOAdyj6bdC3itV2O_Yk-5" value="" style="edgeStyle=orthogonalEdgeStyle;rounded=0;orthogonalLoop=1;jettySize=auto;html=1;" parent="1" source="KKOAdyj6bdC3itV2O_Yk-3" target="KKOAdyj6bdC3itV2O_Yk-4" edge="1">
          <mxGeometry relative="1" as="geometry" />
        </mxCell>
        <mxCell id="KKOAdyj6bdC3itV2O_Yk-3" value="Tokenize input" style="rounded=0;whiteSpace=wrap;html=1;fillColor=#fff2cc;strokeColor=#d6b656;" parent="1" vertex="1">
          <mxGeometry x="40" y="260" width="120" height="60" as="geometry" />
        </mxCell>
        <mxCell id="KKOAdyj6bdC3itV2O_Yk-13" value="" style="edgeStyle=orthogonalEdgeStyle;rounded=0;orthogonalLoop=1;jettySize=auto;html=1;" parent="1" source="KKOAdyj6bdC3itV2O_Yk-4" target="KKOAdyj6bdC3itV2O_Yk-10" edge="1">
          <mxGeometry relative="1" as="geometry" />
        </mxCell>
        <mxCell id="KKOAdyj6bdC3itV2O_Yk-4" value="Parse &amp;amp; Validate Command" style="rounded=0;whiteSpace=wrap;html=1;fillColor=#fff2cc;strokeColor=#d6b656;" parent="1" vertex="1">
          <mxGeometry x="40" y="360" width="120" height="60" as="geometry" />
        </mxCell>
        <mxCell id="KKOAdyj6bdC3itV2O_Yk-12" value="" style="edgeStyle=orthogonalEdgeStyle;rounded=0;orthogonalLoop=1;jettySize=auto;html=1;fillColor=#60a917;strokeColor=#2D7600;" parent="1" source="KKOAdyj6bdC3itV2O_Yk-10" target="KKOAdyj6bdC3itV2O_Yk-11" edge="1">
          <mxGeometry relative="1" as="geometry" />
        </mxCell>
        <mxCell id="KKOAdyj6bdC3itV2O_Yk-26" style="edgeStyle=orthogonalEdgeStyle;rounded=0;orthogonalLoop=1;jettySize=auto;html=1;exitX=0.5;exitY=1;exitDx=0;exitDy=0;entryX=0.5;entryY=0;entryDx=0;entryDy=0;fillColor=#e51400;strokeColor=#B20000;" parent="1" source="KKOAdyj6bdC3itV2O_Yk-10" target="KKOAdyj6bdC3itV2O_Yk-14" edge="1">
          <mxGeometry relative="1" as="geometry" />
        </mxCell>
        <mxCell id="KKOAdyj6bdC3itV2O_Yk-10" value="Is Built-in?" style="rhombus;whiteSpace=wrap;html=1;fillColor=#d5e8d4;strokeColor=#82b366;" parent="1" vertex="1">
          <mxGeometry x="60" y="460" width="80" height="80" as="geometry" />
        </mxCell>
        <mxCell id="KKOAdyj6bdC3itV2O_Yk-20" style="edgeStyle=orthogonalEdgeStyle;rounded=0;orthogonalLoop=1;jettySize=auto;html=1;exitX=1;exitY=0.5;exitDx=0;exitDy=0;entryX=0.5;entryY=0;entryDx=0;entryDy=0;" parent="1" source="KKOAdyj6bdC3itV2O_Yk-11" target="KKOAdyj6bdC3itV2O_Yk-1" edge="1">
          <mxGeometry relative="1" as="geometry">
            <Array as="points">
              <mxPoint x="1060" y="500" />
            </Array>
          </mxGeometry>
        </mxCell>
        <mxCell id="KKOAdyj6bdC3itV2O_Yk-11" value="Execute Built-In" style="rounded=0;whiteSpace=wrap;html=1;fillColor=#d5e8d4;strokeColor=#82b366;" parent="1" vertex="1">
          <mxGeometry x="200" y="470" width="120" height="60" as="geometry" />
        </mxCell>
        <mxCell id="KKOAdyj6bdC3itV2O_Yk-17" value="" style="edgeStyle=orthogonalEdgeStyle;rounded=0;orthogonalLoop=1;jettySize=auto;html=1;fillColor=#e51400;strokeColor=#B20000;" parent="1" source="KKOAdyj6bdC3itV2O_Yk-14" target="KKOAdyj6bdC3itV2O_Yk-16" edge="1">
          <mxGeometry relative="1" as="geometry" />
        </mxCell>
        <mxCell id="KKOAdyj6bdC3itV2O_Yk-22" value="" style="edgeStyle=orthogonalEdgeStyle;rounded=0;orthogonalLoop=1;jettySize=auto;html=1;fillColor=#60a917;strokeColor=#2D7600;" parent="1" source="KKOAdyj6bdC3itV2O_Yk-14" target="KKOAdyj6bdC3itV2O_Yk-21" edge="1">
          <mxGeometry relative="1" as="geometry" />
        </mxCell>
        <mxCell id="KKOAdyj6bdC3itV2O_Yk-14" value="Contains&lt;br&gt;Pipes or&lt;br&gt;Redirections&lt;br&gt;?" style="rhombus;whiteSpace=wrap;html=1;fillColor=#d5e8d4;strokeColor=#82b366;" parent="1" vertex="1">
          <mxGeometry x="50" y="580" width="100" height="100" as="geometry" />
        </mxCell>
        <mxCell id="KKOAdyj6bdC3itV2O_Yk-29" value="" style="edgeStyle=orthogonalEdgeStyle;rounded=0;orthogonalLoop=1;jettySize=auto;html=1;" parent="1" source="KKOAdyj6bdC3itV2O_Yk-16" target="KKOAdyj6bdC3itV2O_Yk-28" edge="1">
          <mxGeometry relative="1" as="geometry" />
        </mxCell>
        <mxCell id="KKOAdyj6bdC3itV2O_Yk-16" value="Fork Process" style="whiteSpace=wrap;html=1;fillColor=#d5e8d4;strokeColor=#82b366;" parent="1" vertex="1">
          <mxGeometry x="40" y="720" width="120" height="60" as="geometry" />
        </mxCell>
        <mxCell id="KKOAdyj6bdC3itV2O_Yk-21" value="Setup Pipes/Redirections" style="whiteSpace=wrap;html=1;fillColor=#d5e8d4;strokeColor=#82b366;" parent="1" vertex="1">
          <mxGeometry x="200" y="600" width="120" height="60" as="geometry" />
        </mxCell>
        <mxCell id="KKOAdyj6bdC3itV2O_Yk-31" value="" style="edgeStyle=orthogonalEdgeStyle;rounded=0;orthogonalLoop=1;jettySize=auto;html=1;fillColor=#60a917;strokeColor=#2D7600;" parent="1" source="KKOAdyj6bdC3itV2O_Yk-28" target="KKOAdyj6bdC3itV2O_Yk-30" edge="1">
          <mxGeometry relative="1" as="geometry" />
        </mxCell>
        <mxCell id="KKOAdyj6bdC3itV2O_Yk-33" value="" style="edgeStyle=orthogonalEdgeStyle;rounded=0;orthogonalLoop=1;jettySize=auto;html=1;fillColor=#e51400;strokeColor=#B20000;" parent="1" source="KKOAdyj6bdC3itV2O_Yk-28" target="KKOAdyj6bdC3itV2O_Yk-32" edge="1">
          <mxGeometry relative="1" as="geometry" />
        </mxCell>
        <mxCell id="KKOAdyj6bdC3itV2O_Yk-28" value="Is Child Process&lt;br&gt;?" style="rhombus;whiteSpace=wrap;html=1;fillColor=#d5e8d4;strokeColor=#82b366;" parent="1" vertex="1">
          <mxGeometry x="60" y="820" width="80" height="80" as="geometry" />
        </mxCell>
        <mxCell id="KKOAdyj6bdC3itV2O_Yk-30" value="Execute external command" style="whiteSpace=wrap;html=1;fillColor=#d5e8d4;strokeColor=#82b366;" parent="1" vertex="1">
          <mxGeometry x="200" y="830" width="120" height="60" as="geometry" />
        </mxCell>
        <mxCell id="KKOAdyj6bdC3itV2O_Yk-35" style="edgeStyle=orthogonalEdgeStyle;rounded=0;orthogonalLoop=1;jettySize=auto;html=1;exitX=1;exitY=0.5;exitDx=0;exitDy=0;entryX=0;entryY=0.5;entryDx=0;entryDy=0;" parent="1" source="KKOAdyj6bdC3itV2O_Yk-32" target="KKOAdyj6bdC3itV2O_Yk-1" edge="1">
          <mxGeometry relative="1" as="geometry">
            <mxPoint x="970" y="970" as="targetPoint" />
          </mxGeometry>
        </mxCell>
        <mxCell id="KKOAdyj6bdC3itV2O_Yk-32" value="Parent: wait for child" style="whiteSpace=wrap;html=1;fillColor=#d5e8d4;strokeColor=#82b366;" parent="1" vertex="1">
          <mxGeometry x="40" y="940" width="120" height="60" as="geometry" />
        </mxCell>
        <mxCell id="dKQBs0VEd3VHmLl9309u-1" value="" style="text;whiteSpace=wrap;html=1;" vertex="1" parent="1">
          <mxGeometry x="610" y="520" width="60" height="50" as="geometry" />
        </mxCell>
      </root>
    </mxGraphModel>
  </diagram>
  <diagram name="Beispielcommands" id="AiYGs15zsHtjhv7yqmkw">
    <mxGraphModel dx="1259" dy="1972" grid="1" gridSize="10" guides="1" tooltips="1" connect="1" arrows="1" fold="1" page="1" pageScale="1" pageWidth="827" pageHeight="1169" math="0" shadow="0">
      <root>
        <mxCell id="0" />
        <mxCell id="1" parent="0" />
        <mxCell id="DeqvKVGRM20GNOcL2zTr-1" style="edgeStyle=orthogonalEdgeStyle;rounded=0;orthogonalLoop=1;jettySize=auto;html=1;exitX=0.5;exitY=1;exitDx=0;exitDy=0;entryX=0.5;entryY=0;entryDx=0;entryDy=0;" parent="1" source="Insw3M1yilx0FiIzdZTs-1" target="DeqvKVGRM20GNOcL2zTr-3" edge="1">
          <mxGeometry relative="1" as="geometry">
            <mxPoint x="130" y="225" as="targetPoint" />
          </mxGeometry>
        </mxCell>
        <mxCell id="DeqvKVGRM20GNOcL2zTr-4" style="edgeStyle=orthogonalEdgeStyle;rounded=0;orthogonalLoop=1;jettySize=auto;html=1;entryX=0.5;entryY=0;entryDx=0;entryDy=0;" parent="1" source="Insw3M1yilx0FiIzdZTs-1" target="DeqvKVGRM20GNOcL2zTr-5" edge="1">
          <mxGeometry relative="1" as="geometry">
            <mxPoint x="350" y="205" as="targetPoint" />
          </mxGeometry>
        </mxCell>
        <mxCell id="DeqvKVGRM20GNOcL2zTr-8" style="edgeStyle=orthogonalEdgeStyle;rounded=0;orthogonalLoop=1;jettySize=auto;html=1;exitX=0.5;exitY=1;exitDx=0;exitDy=0;entryX=0.5;entryY=0;entryDx=0;entryDy=0;" parent="1" source="Insw3M1yilx0FiIzdZTs-1" target="DeqvKVGRM20GNOcL2zTr-7" edge="1">
          <mxGeometry relative="1" as="geometry" />
        </mxCell>
        <mxCell id="Insw3M1yilx0FiIzdZTs-1" value="ls -l | grep &quot;.txt&quot;" style="whiteSpace=wrap;html=1;" parent="1" vertex="1">
          <mxGeometry x="200" y="105" width="120" height="60" as="geometry" />
        </mxCell>
        <mxCell id="DeqvKVGRM20GNOcL2zTr-3" value="commands:&lt;div&gt;ls&lt;/div&gt;&lt;div&gt;grep&lt;/div&gt;" style="whiteSpace=wrap;html=1;" parent="1" vertex="1">
          <mxGeometry x="70" y="205" width="120" height="60" as="geometry" />
        </mxCell>
        <mxCell id="DeqvKVGRM20GNOcL2zTr-5" value="arguments:&lt;div&gt;-l&lt;/div&gt;&lt;div&gt;&quot;.txt&quot;&lt;/div&gt;" style="whiteSpace=wrap;html=1;" parent="1" vertex="1">
          <mxGeometry x="230" y="205" width="120" height="60" as="geometry" />
        </mxCell>
        <mxCell id="tHMArx1ASRfBJgPJBZ7F-2" value="" style="edgeStyle=orthogonalEdgeStyle;rounded=0;orthogonalLoop=1;jettySize=auto;html=1;" parent="1" source="DeqvKVGRM20GNOcL2zTr-7" target="tHMArx1ASRfBJgPJBZ7F-1" edge="1">
          <mxGeometry relative="1" as="geometry" />
        </mxCell>
        <mxCell id="DeqvKVGRM20GNOcL2zTr-7" value="operators:&lt;div&gt;|&lt;/div&gt;" style="whiteSpace=wrap;html=1;" parent="1" vertex="1">
          <mxGeometry x="380" y="205" width="120" height="60" as="geometry" />
        </mxCell>
        <mxCell id="tHMArx1ASRfBJgPJBZ7F-5" value="" style="edgeStyle=orthogonalEdgeStyle;rounded=0;orthogonalLoop=1;jettySize=auto;html=1;" parent="1" source="tHMArx1ASRfBJgPJBZ7F-1" target="tHMArx1ASRfBJgPJBZ7F-4" edge="1">
          <mxGeometry relative="1" as="geometry" />
        </mxCell>
        <mxCell id="tHMArx1ASRfBJgPJBZ7F-7" value="" style="edgeStyle=orthogonalEdgeStyle;rounded=0;orthogonalLoop=1;jettySize=auto;html=1;" parent="1" source="tHMArx1ASRfBJgPJBZ7F-1" target="tHMArx1ASRfBJgPJBZ7F-6" edge="1">
          <mxGeometry relative="1" as="geometry" />
        </mxCell>
        <mxCell id="tHMArx1ASRfBJgPJBZ7F-1" value="fork" style="whiteSpace=wrap;html=1;" parent="1" vertex="1">
          <mxGeometry x="380" y="285" width="120" height="60" as="geometry" />
        </mxCell>
        <mxCell id="tHMArx1ASRfBJgPJBZ7F-18" value="" style="edgeStyle=orthogonalEdgeStyle;rounded=0;orthogonalLoop=1;jettySize=auto;html=1;" parent="1" source="tHMArx1ASRfBJgPJBZ7F-4" target="tHMArx1ASRfBJgPJBZ7F-17" edge="1">
          <mxGeometry relative="1" as="geometry" />
        </mxCell>
        <mxCell id="tHMArx1ASRfBJgPJBZ7F-4" value="child&lt;div&gt;ls -l&lt;/div&gt;" style="whiteSpace=wrap;html=1;" parent="1" vertex="1">
          <mxGeometry x="230" y="365" width="120" height="60" as="geometry" />
        </mxCell>
        <mxCell id="tHMArx1ASRfBJgPJBZ7F-10" style="edgeStyle=orthogonalEdgeStyle;rounded=0;orthogonalLoop=1;jettySize=auto;html=1;entryX=1;entryY=0.5;entryDx=0;entryDy=0;exitX=0;exitY=0;exitDx=0;exitDy=0;" parent="1" source="tHMArx1ASRfBJgPJBZ7F-6" target="tHMArx1ASRfBJgPJBZ7F-4" edge="1">
          <mxGeometry relative="1" as="geometry" />
        </mxCell>
        <mxCell id="tHMArx1ASRfBJgPJBZ7F-11" value="wait" style="edgeLabel;html=1;align=center;verticalAlign=middle;resizable=0;points=[];" parent="tHMArx1ASRfBJgPJBZ7F-10" vertex="1" connectable="0">
          <mxGeometry x="-0.2192" relative="1" as="geometry">
            <mxPoint as="offset" />
          </mxGeometry>
        </mxCell>
        <mxCell id="tHMArx1ASRfBJgPJBZ7F-29" value="" style="edgeStyle=orthogonalEdgeStyle;rounded=0;orthogonalLoop=1;jettySize=auto;html=1;" parent="1" source="tHMArx1ASRfBJgPJBZ7F-6" target="tHMArx1ASRfBJgPJBZ7F-28" edge="1">
          <mxGeometry relative="1" as="geometry" />
        </mxCell>
        <mxCell id="tHMArx1ASRfBJgPJBZ7F-6" value="parent:&lt;div&gt;grep &quot;.txt&quot;&lt;/div&gt;" style="whiteSpace=wrap;html=1;" parent="1" vertex="1">
          <mxGeometry x="600" y="455" width="120" height="60" as="geometry" />
        </mxCell>
        <mxCell id="tHMArx1ASRfBJgPJBZ7F-20" value="" style="edgeStyle=orthogonalEdgeStyle;rounded=0;orthogonalLoop=1;jettySize=auto;html=1;" parent="1" source="tHMArx1ASRfBJgPJBZ7F-17" target="tHMArx1ASRfBJgPJBZ7F-19" edge="1">
          <mxGeometry relative="1" as="geometry" />
        </mxCell>
        <mxCell id="tHMArx1ASRfBJgPJBZ7F-25" value="no" style="edgeLabel;html=1;align=center;verticalAlign=middle;resizable=0;points=[];" parent="tHMArx1ASRfBJgPJBZ7F-20" vertex="1" connectable="0">
          <mxGeometry x="-0.0743" y="1" relative="1" as="geometry">
            <mxPoint as="offset" />
          </mxGeometry>
        </mxCell>
        <mxCell id="tHMArx1ASRfBJgPJBZ7F-17" value="built-in?" style="rhombus;whiteSpace=wrap;html=1;" parent="1" vertex="1">
          <mxGeometry x="250" y="445" width="80" height="80" as="geometry" />
        </mxCell>
        <mxCell id="tHMArx1ASRfBJgPJBZ7F-22" style="edgeStyle=orthogonalEdgeStyle;rounded=0;orthogonalLoop=1;jettySize=auto;html=1;entryX=0.5;entryY=0;entryDx=0;entryDy=0;exitX=0;exitY=0.5;exitDx=0;exitDy=0;" parent="1" source="tHMArx1ASRfBJgPJBZ7F-19" target="tHMArx1ASRfBJgPJBZ7F-21" edge="1">
          <mxGeometry relative="1" as="geometry" />
        </mxCell>
        <mxCell id="tHMArx1ASRfBJgPJBZ7F-24" style="edgeStyle=orthogonalEdgeStyle;rounded=0;orthogonalLoop=1;jettySize=auto;html=1;exitX=1;exitY=0.5;exitDx=0;exitDy=0;entryX=0.5;entryY=0;entryDx=0;entryDy=0;" parent="1" source="tHMArx1ASRfBJgPJBZ7F-19" target="tHMArx1ASRfBJgPJBZ7F-23" edge="1">
          <mxGeometry relative="1" as="geometry" />
        </mxCell>
        <mxCell id="tHMArx1ASRfBJgPJBZ7F-19" value="fork" style="whiteSpace=wrap;html=1;" parent="1" vertex="1">
          <mxGeometry x="230" y="585" width="120" height="60" as="geometry" />
        </mxCell>
        <mxCell id="tHMArx1ASRfBJgPJBZ7F-26" style="edgeStyle=orthogonalEdgeStyle;rounded=0;orthogonalLoop=1;jettySize=auto;html=1;entryX=0;entryY=0.5;entryDx=0;entryDy=0;" parent="1" source="tHMArx1ASRfBJgPJBZ7F-21" target="tHMArx1ASRfBJgPJBZ7F-23" edge="1">
          <mxGeometry relative="1" as="geometry" />
        </mxCell>
        <mxCell id="tHMArx1ASRfBJgPJBZ7F-27" value="pipe" style="edgeLabel;html=1;align=center;verticalAlign=middle;resizable=0;points=[];" parent="tHMArx1ASRfBJgPJBZ7F-26" vertex="1" connectable="0">
          <mxGeometry x="0.3543" y="-1" relative="1" as="geometry">
            <mxPoint as="offset" />
          </mxGeometry>
        </mxCell>
        <mxCell id="tHMArx1ASRfBJgPJBZ7F-21" value="child&lt;div&gt;execve(&quot;ls&quot;, &quot;-l&quot;)&lt;/div&gt;&lt;div&gt;using PATH&lt;/div&gt;" style="whiteSpace=wrap;html=1;" parent="1" vertex="1">
          <mxGeometry x="150" y="675" width="120" height="60" as="geometry" />
        </mxCell>
        <mxCell id="tHMArx1ASRfBJgPJBZ7F-34" value="pipe" style="edgeStyle=orthogonalEdgeStyle;rounded=0;orthogonalLoop=1;jettySize=auto;html=1;entryX=0;entryY=0.5;entryDx=0;entryDy=0;" parent="1" source="tHMArx1ASRfBJgPJBZ7F-23" target="tHMArx1ASRfBJgPJBZ7F-32" edge="1">
          <mxGeometry relative="1" as="geometry" />
        </mxCell>
        <mxCell id="tHMArx1ASRfBJgPJBZ7F-23" value="parent" style="whiteSpace=wrap;html=1;" parent="1" vertex="1">
          <mxGeometry x="340" y="745" width="120" height="60" as="geometry" />
        </mxCell>
        <mxCell id="tHMArx1ASRfBJgPJBZ7F-31" value="no" style="edgeStyle=orthogonalEdgeStyle;rounded=0;orthogonalLoop=1;jettySize=auto;html=1;" parent="1" source="tHMArx1ASRfBJgPJBZ7F-28" target="tHMArx1ASRfBJgPJBZ7F-30" edge="1">
          <mxGeometry relative="1" as="geometry" />
        </mxCell>
        <mxCell id="tHMArx1ASRfBJgPJBZ7F-28" value="built-in?" style="rhombus;whiteSpace=wrap;html=1;" parent="1" vertex="1">
          <mxGeometry x="620" y="535" width="80" height="80" as="geometry" />
        </mxCell>
        <mxCell id="tHMArx1ASRfBJgPJBZ7F-33" value="" style="edgeStyle=orthogonalEdgeStyle;rounded=0;orthogonalLoop=1;jettySize=auto;html=1;" parent="1" source="tHMArx1ASRfBJgPJBZ7F-30" target="tHMArx1ASRfBJgPJBZ7F-32" edge="1">
          <mxGeometry relative="1" as="geometry" />
        </mxCell>
        <mxCell id="tHMArx1ASRfBJgPJBZ7F-36" value="" style="edgeStyle=orthogonalEdgeStyle;rounded=0;orthogonalLoop=1;jettySize=auto;html=1;" parent="1" source="tHMArx1ASRfBJgPJBZ7F-30" target="tHMArx1ASRfBJgPJBZ7F-35" edge="1">
          <mxGeometry relative="1" as="geometry" />
        </mxCell>
        <mxCell id="tHMArx1ASRfBJgPJBZ7F-30" value="fork" style="whiteSpace=wrap;html=1;" parent="1" vertex="1">
          <mxGeometry x="600" y="660" width="120" height="60" as="geometry" />
        </mxCell>
        <mxCell id="tHMArx1ASRfBJgPJBZ7F-37" value="pipe" style="edgeStyle=orthogonalEdgeStyle;rounded=0;orthogonalLoop=1;jettySize=auto;html=1;" parent="1" source="tHMArx1ASRfBJgPJBZ7F-32" target="tHMArx1ASRfBJgPJBZ7F-35" edge="1">
          <mxGeometry relative="1" as="geometry" />
        </mxCell>
        <mxCell id="tHMArx1ASRfBJgPJBZ7F-32" value="child&lt;div&gt;execve(&quot;grep&quot;, &quot;.txt&quot;) read from pipe??&lt;/div&gt;" style="whiteSpace=wrap;html=1;" parent="1" vertex="1">
          <mxGeometry x="540" y="765" width="120" height="60" as="geometry" />
        </mxCell>
        <mxCell id="zWfx9Z2c1wPiMJ52hxN3-2" value="" style="edgeStyle=orthogonalEdgeStyle;rounded=0;orthogonalLoop=1;jettySize=auto;html=1;" parent="1" source="tHMArx1ASRfBJgPJBZ7F-35" target="zWfx9Z2c1wPiMJ52hxN3-1" edge="1">
          <mxGeometry relative="1" as="geometry" />
        </mxCell>
        <mxCell id="tHMArx1ASRfBJgPJBZ7F-35" value="parent" style="whiteSpace=wrap;html=1;" parent="1" vertex="1">
          <mxGeometry x="790" y="765" width="120" height="60" as="geometry" />
        </mxCell>
        <mxCell id="zWfx9Z2c1wPiMJ52hxN3-4" value="" style="edgeStyle=orthogonalEdgeStyle;rounded=0;orthogonalLoop=1;jettySize=auto;html=1;" parent="1" source="zWfx9Z2c1wPiMJ52hxN3-1" target="zWfx9Z2c1wPiMJ52hxN3-3" edge="1">
          <mxGeometry relative="1" as="geometry" />
        </mxCell>
        <mxCell id="zWfx9Z2c1wPiMJ52hxN3-1" value="Print to&lt;span style=&quot;background-color: transparent; color: light-dark(rgb(0, 0, 0), rgb(255, 255, 255));&quot;&gt;&amp;nbsp;STDOUT&lt;/span&gt;" style="whiteSpace=wrap;html=1;" parent="1" vertex="1">
          <mxGeometry x="790" y="905" width="120" height="60" as="geometry" />
        </mxCell>
        <mxCell id="zWfx9Z2c1wPiMJ52hxN3-3" value="finished" style="ellipse;whiteSpace=wrap;html=1;" parent="1" vertex="1">
          <mxGeometry x="810" y="985" width="80" height="80" as="geometry" />
        </mxCell>
        <mxCell id="zWfx9Z2c1wPiMJ52hxN3-7" style="edgeStyle=orthogonalEdgeStyle;rounded=0;orthogonalLoop=1;jettySize=auto;html=1;exitX=0.5;exitY=1;exitDx=0;exitDy=0;entryX=0.5;entryY=0;entryDx=0;entryDy=0;" parent="1" source="zWfx9Z2c1wPiMJ52hxN3-5" target="Insw3M1yilx0FiIzdZTs-1" edge="1">
          <mxGeometry relative="1" as="geometry" />
        </mxCell>
        <mxCell id="zWfx9Z2c1wPiMJ52hxN3-5" value="START" style="ellipse;whiteSpace=wrap;html=1;" parent="1" vertex="1">
          <mxGeometry x="220" y="-10" width="80" height="80" as="geometry" />
        </mxCell>
        <mxCell id="zWfx9Z2c1wPiMJ52hxN3-10" value="" style="edgeStyle=orthogonalEdgeStyle;rounded=0;orthogonalLoop=1;jettySize=auto;html=1;" parent="1" source="zWfx9Z2c1wPiMJ52hxN3-8" target="zWfx9Z2c1wPiMJ52hxN3-9" edge="1">
          <mxGeometry relative="1" as="geometry" />
        </mxCell>
        <mxCell id="zWfx9Z2c1wPiMJ52hxN3-8" value="START" style="ellipse;whiteSpace=wrap;html=1;" parent="1" vertex="1">
          <mxGeometry x="1310" y="-30" width="80" height="80" as="geometry" />
        </mxCell>
        <mxCell id="zWfx9Z2c1wPiMJ52hxN3-16" value="" style="edgeStyle=orthogonalEdgeStyle;rounded=0;orthogonalLoop=1;jettySize=auto;html=1;" parent="1" source="zWfx9Z2c1wPiMJ52hxN3-9" target="zWfx9Z2c1wPiMJ52hxN3-15" edge="1">
          <mxGeometry relative="1" as="geometry" />
        </mxCell>
        <mxCell id="zWfx9Z2c1wPiMJ52hxN3-17" style="edgeStyle=orthogonalEdgeStyle;rounded=0;orthogonalLoop=1;jettySize=auto;html=1;" parent="1" source="zWfx9Z2c1wPiMJ52hxN3-9" target="zWfx9Z2c1wPiMJ52hxN3-11" edge="1">
          <mxGeometry relative="1" as="geometry" />
        </mxCell>
        <mxCell id="jbj8NOIpBnQC593MmUfH-3" style="edgeStyle=orthogonalEdgeStyle;rounded=0;orthogonalLoop=1;jettySize=auto;html=1;exitX=0.5;exitY=1;exitDx=0;exitDy=0;entryX=0.5;entryY=0;entryDx=0;entryDy=0;" parent="1" source="zWfx9Z2c1wPiMJ52hxN3-9" target="zWfx9Z2c1wPiMJ52hxN3-22" edge="1">
          <mxGeometry relative="1" as="geometry" />
        </mxCell>
        <mxCell id="zWfx9Z2c1wPiMJ52hxN3-9" value="&lt;div&gt;mkdir backup &amp;amp;&amp;amp; mv important_file.txt backup/&lt;/div&gt;&lt;div&gt;&lt;br&gt;&lt;/div&gt;" style="whiteSpace=wrap;html=1;" parent="1" vertex="1">
          <mxGeometry x="1230" y="70" width="240" height="50" as="geometry" />
        </mxCell>
        <mxCell id="zWfx9Z2c1wPiMJ52hxN3-21" value="" style="edgeStyle=orthogonalEdgeStyle;rounded=0;orthogonalLoop=1;jettySize=auto;html=1;" parent="1" source="zWfx9Z2c1wPiMJ52hxN3-11" target="zWfx9Z2c1wPiMJ52hxN3-20" edge="1">
          <mxGeometry relative="1" as="geometry" />
        </mxCell>
        <mxCell id="zWfx9Z2c1wPiMJ52hxN3-27" value="" style="edgeStyle=orthogonalEdgeStyle;rounded=0;orthogonalLoop=1;jettySize=auto;html=1;" parent="1" source="zWfx9Z2c1wPiMJ52hxN3-11" target="zWfx9Z2c1wPiMJ52hxN3-20" edge="1">
          <mxGeometry relative="1" as="geometry" />
        </mxCell>
        <mxCell id="zWfx9Z2c1wPiMJ52hxN3-28" value="" style="edgeStyle=orthogonalEdgeStyle;rounded=0;orthogonalLoop=1;jettySize=auto;html=1;" parent="1" source="zWfx9Z2c1wPiMJ52hxN3-11" target="zWfx9Z2c1wPiMJ52hxN3-20" edge="1">
          <mxGeometry relative="1" as="geometry" />
        </mxCell>
        <mxCell id="zWfx9Z2c1wPiMJ52hxN3-30" value="" style="edgeStyle=orthogonalEdgeStyle;rounded=0;orthogonalLoop=1;jettySize=auto;html=1;" parent="1" source="zWfx9Z2c1wPiMJ52hxN3-11" target="zWfx9Z2c1wPiMJ52hxN3-29" edge="1">
          <mxGeometry relative="1" as="geometry" />
        </mxCell>
        <mxCell id="zWfx9Z2c1wPiMJ52hxN3-11" value="commands" style="whiteSpace=wrap;html=1;" parent="1" vertex="1">
          <mxGeometry x="1200" y="160" width="120" height="60" as="geometry" />
        </mxCell>
        <mxCell id="zWfx9Z2c1wPiMJ52hxN3-19" value="" style="edgeStyle=orthogonalEdgeStyle;rounded=0;orthogonalLoop=1;jettySize=auto;html=1;" parent="1" source="zWfx9Z2c1wPiMJ52hxN3-15" target="zWfx9Z2c1wPiMJ52hxN3-18" edge="1">
          <mxGeometry relative="1" as="geometry" />
        </mxCell>
        <mxCell id="zWfx9Z2c1wPiMJ52hxN3-15" value="operators:" style="whiteSpace=wrap;html=1;" parent="1" vertex="1">
          <mxGeometry x="1390" y="160" width="120" height="60" as="geometry" />
        </mxCell>
        <mxCell id="zWfx9Z2c1wPiMJ52hxN3-35" value="" style="edgeStyle=orthogonalEdgeStyle;rounded=0;orthogonalLoop=1;jettySize=auto;html=1;" parent="1" source="zWfx9Z2c1wPiMJ52hxN3-18" target="zWfx9Z2c1wPiMJ52hxN3-34" edge="1">
          <mxGeometry relative="1" as="geometry" />
        </mxCell>
        <mxCell id="zWfx9Z2c1wPiMJ52hxN3-18" value="&amp;amp;&amp;amp;" style="whiteSpace=wrap;html=1;" parent="1" vertex="1">
          <mxGeometry x="1390" y="340" width="120" height="60" as="geometry" />
        </mxCell>
        <mxCell id="zWfx9Z2c1wPiMJ52hxN3-26" style="edgeStyle=orthogonalEdgeStyle;rounded=0;orthogonalLoop=1;jettySize=auto;html=1;entryX=1;entryY=0.5;entryDx=0;entryDy=0;" parent="1" source="zWfx9Z2c1wPiMJ52hxN3-20" target="zWfx9Z2c1wPiMJ52hxN3-24" edge="1">
          <mxGeometry relative="1" as="geometry" />
        </mxCell>
        <mxCell id="zWfx9Z2c1wPiMJ52hxN3-20" value="mkdir" style="whiteSpace=wrap;html=1;" parent="1" vertex="1">
          <mxGeometry x="1200" y="250" width="120" height="60" as="geometry" />
        </mxCell>
        <mxCell id="zWfx9Z2c1wPiMJ52hxN3-25" value="" style="edgeStyle=orthogonalEdgeStyle;rounded=0;orthogonalLoop=1;jettySize=auto;html=1;" parent="1" source="zWfx9Z2c1wPiMJ52hxN3-22" target="zWfx9Z2c1wPiMJ52hxN3-24" edge="1">
          <mxGeometry relative="1" as="geometry" />
        </mxCell>
        <mxCell id="zWfx9Z2c1wPiMJ52hxN3-32" value="" style="edgeStyle=orthogonalEdgeStyle;rounded=0;orthogonalLoop=1;jettySize=auto;html=1;" parent="1" source="zWfx9Z2c1wPiMJ52hxN3-22" target="zWfx9Z2c1wPiMJ52hxN3-31" edge="1">
          <mxGeometry relative="1" as="geometry" />
        </mxCell>
        <mxCell id="zWfx9Z2c1wPiMJ52hxN3-22" value="arguments" style="whiteSpace=wrap;html=1;" parent="1" vertex="1">
          <mxGeometry x="1000" y="160" width="120" height="60" as="geometry" />
        </mxCell>
        <mxCell id="zWfx9Z2c1wPiMJ52hxN3-24" value="&quot;backup&quot;" style="whiteSpace=wrap;html=1;" parent="1" vertex="1">
          <mxGeometry x="1000" y="250" width="120" height="60" as="geometry" />
        </mxCell>
        <mxCell id="zWfx9Z2c1wPiMJ52hxN3-33" style="edgeStyle=orthogonalEdgeStyle;rounded=0;orthogonalLoop=1;jettySize=auto;html=1;" parent="1" source="zWfx9Z2c1wPiMJ52hxN3-29" edge="1">
          <mxGeometry relative="1" as="geometry">
            <mxPoint x="1120.0000000000002" y="370" as="targetPoint" />
          </mxGeometry>
        </mxCell>
        <mxCell id="zWfx9Z2c1wPiMJ52hxN3-29" value="mv" style="whiteSpace=wrap;html=1;" parent="1" vertex="1">
          <mxGeometry x="1200" y="340" width="120" height="60" as="geometry" />
        </mxCell>
        <mxCell id="zWfx9Z2c1wPiMJ52hxN3-31" value="&quot;important_file.txt&quot;&lt;div&gt;&quot;backup/&quot;&lt;/div&gt;" style="whiteSpace=wrap;html=1;" parent="1" vertex="1">
          <mxGeometry x="1000" y="340" width="120" height="60" as="geometry" />
        </mxCell>
        <mxCell id="zWfx9Z2c1wPiMJ52hxN3-37" value="" style="edgeStyle=orthogonalEdgeStyle;rounded=0;orthogonalLoop=1;jettySize=auto;html=1;" parent="1" source="zWfx9Z2c1wPiMJ52hxN3-34" target="zWfx9Z2c1wPiMJ52hxN3-36" edge="1">
          <mxGeometry relative="1" as="geometry" />
        </mxCell>
        <mxCell id="jbj8NOIpBnQC593MmUfH-5" value="" style="edgeStyle=orthogonalEdgeStyle;rounded=0;orthogonalLoop=1;jettySize=auto;html=1;" parent="1" source="zWfx9Z2c1wPiMJ52hxN3-34" target="jbj8NOIpBnQC593MmUfH-4" edge="1">
          <mxGeometry relative="1" as="geometry" />
        </mxCell>
        <mxCell id="zWfx9Z2c1wPiMJ52hxN3-34" value="fork" style="whiteSpace=wrap;html=1;" parent="1" vertex="1">
          <mxGeometry x="1390" y="420" width="120" height="60" as="geometry" />
        </mxCell>
        <mxCell id="zWfx9Z2c1wPiMJ52hxN3-39" value="" style="edgeStyle=orthogonalEdgeStyle;rounded=0;orthogonalLoop=1;jettySize=auto;html=1;" parent="1" source="zWfx9Z2c1wPiMJ52hxN3-36" target="zWfx9Z2c1wPiMJ52hxN3-38" edge="1">
          <mxGeometry relative="1" as="geometry" />
        </mxCell>
        <mxCell id="zWfx9Z2c1wPiMJ52hxN3-36" value="child&lt;div&gt;mkdir backup&lt;/div&gt;" style="whiteSpace=wrap;html=1;" parent="1" vertex="1">
          <mxGeometry x="1210" y="455" width="120" height="60" as="geometry" />
        </mxCell>
        <mxCell id="jbj8NOIpBnQC593MmUfH-2" value="no" style="edgeStyle=orthogonalEdgeStyle;rounded=0;orthogonalLoop=1;jettySize=auto;html=1;" parent="1" source="zWfx9Z2c1wPiMJ52hxN3-38" target="jbj8NOIpBnQC593MmUfH-1" edge="1">
          <mxGeometry relative="1" as="geometry" />
        </mxCell>
        <mxCell id="zWfx9Z2c1wPiMJ52hxN3-38" value="built-in?" style="rhombus;whiteSpace=wrap;html=1;" parent="1" vertex="1">
          <mxGeometry x="1230" y="535" width="80" height="80" as="geometry" />
        </mxCell>
        <mxCell id="jbj8NOIpBnQC593MmUfH-7" value="" style="edgeStyle=orthogonalEdgeStyle;rounded=0;orthogonalLoop=1;jettySize=auto;html=1;" parent="1" source="jbj8NOIpBnQC593MmUfH-1" target="jbj8NOIpBnQC593MmUfH-6" edge="1">
          <mxGeometry relative="1" as="geometry" />
        </mxCell>
        <mxCell id="jbj8NOIpBnQC593MmUfH-1" value="&lt;div&gt;fork&lt;/div&gt;execve&lt;div&gt;mkdir&lt;/div&gt;&lt;div&gt;&quot;backup&quot;&lt;/div&gt;" style="whiteSpace=wrap;html=1;" parent="1" vertex="1">
          <mxGeometry x="1210" y="670" width="120" height="95" as="geometry" />
        </mxCell>
        <mxCell id="jbj8NOIpBnQC593MmUfH-8" value="wait" style="edgeStyle=orthogonalEdgeStyle;rounded=0;orthogonalLoop=1;jettySize=auto;html=1;exitX=0;exitY=1;exitDx=0;exitDy=0;entryX=1;entryY=0.5;entryDx=0;entryDy=0;" parent="1" source="jbj8NOIpBnQC593MmUfH-4" target="jbj8NOIpBnQC593MmUfH-6" edge="1">
          <mxGeometry relative="1" as="geometry">
            <Array as="points">
              <mxPoint x="1430" y="515" />
              <mxPoint x="1430" y="830" />
            </Array>
          </mxGeometry>
        </mxCell>
        <mxCell id="jbj8NOIpBnQC593MmUfH-12" value="" style="edgeStyle=orthogonalEdgeStyle;rounded=0;orthogonalLoop=1;jettySize=auto;html=1;" parent="1" source="jbj8NOIpBnQC593MmUfH-4" target="jbj8NOIpBnQC593MmUfH-11" edge="1">
          <mxGeometry relative="1" as="geometry" />
        </mxCell>
        <mxCell id="jbj8NOIpBnQC593MmUfH-4" value="parent" style="whiteSpace=wrap;html=1;" parent="1" vertex="1">
          <mxGeometry x="1560" y="455" width="120" height="60" as="geometry" />
        </mxCell>
        <mxCell id="jbj8NOIpBnQC593MmUfH-6" value="succesfull?" style="rhombus;whiteSpace=wrap;html=1;" parent="1" vertex="1">
          <mxGeometry x="1230" y="790" width="80" height="80" as="geometry" />
        </mxCell>
        <mxCell id="jbj8NOIpBnQC593MmUfH-14" value="no" style="edgeStyle=orthogonalEdgeStyle;rounded=0;orthogonalLoop=1;jettySize=auto;html=1;" parent="1" source="jbj8NOIpBnQC593MmUfH-11" target="jbj8NOIpBnQC593MmUfH-13" edge="1">
          <mxGeometry relative="1" as="geometry" />
        </mxCell>
        <mxCell id="jbj8NOIpBnQC593MmUfH-11" value="built-in?" style="rhombus;whiteSpace=wrap;html=1;" parent="1" vertex="1">
          <mxGeometry x="1580" y="545" width="80" height="80" as="geometry" />
        </mxCell>
        <mxCell id="jbj8NOIpBnQC593MmUfH-13" value="" style="whiteSpace=wrap;html=1;" parent="1" vertex="1">
          <mxGeometry x="1560" y="715" width="120" height="60" as="geometry" />
        </mxCell>
      </root>
    </mxGraphModel>
  </diagram>
  <diagram name="Kopie von Beispielcommands" id="LH_0vLA98moK81UCmv4U">
    <mxGraphModel dx="2243" dy="1999" grid="1" gridSize="10" guides="1" tooltips="1" connect="1" arrows="1" fold="1" page="1" pageScale="1" pageWidth="827" pageHeight="1169" math="0" shadow="0">
      <root>
        <mxCell id="ZGnwAykTWob0K404iPET-0" />
        <mxCell id="ZGnwAykTWob0K404iPET-1" parent="ZGnwAykTWob0K404iPET-0" />
        <mxCell id="ZGnwAykTWob0K404iPET-5" value="ls -l | grep &quot;.txt&quot;" style="whiteSpace=wrap;html=1;" vertex="1" parent="ZGnwAykTWob0K404iPET-1">
          <mxGeometry x="230" y="-295" width="120" height="60" as="geometry" />
        </mxCell>
        <mxCell id="ZGnwAykTWob0K404iPET-8" value="" style="edgeStyle=orthogonalEdgeStyle;rounded=0;orthogonalLoop=1;jettySize=auto;html=1;" edge="1" parent="ZGnwAykTWob0K404iPET-1" source="ZGnwAykTWob0K404iPET-9" target="ZGnwAykTWob0K404iPET-12">
          <mxGeometry relative="1" as="geometry" />
        </mxCell>
        <mxCell id="ZGnwAykTWob0K404iPET-9" value="operators:&lt;div&gt;|&lt;/div&gt;" style="whiteSpace=wrap;html=1;" vertex="1" parent="ZGnwAykTWob0K404iPET-1">
          <mxGeometry x="240" y="299" width="120" height="60" as="geometry" />
        </mxCell>
        <mxCell id="ZGnwAykTWob0K404iPET-10" value="" style="edgeStyle=orthogonalEdgeStyle;rounded=0;orthogonalLoop=1;jettySize=auto;html=1;" edge="1" parent="ZGnwAykTWob0K404iPET-1" source="ZGnwAykTWob0K404iPET-12" target="ZGnwAykTWob0K404iPET-14">
          <mxGeometry relative="1" as="geometry" />
        </mxCell>
        <mxCell id="ZGnwAykTWob0K404iPET-11" value="" style="edgeStyle=orthogonalEdgeStyle;rounded=0;orthogonalLoop=1;jettySize=auto;html=1;" edge="1" parent="ZGnwAykTWob0K404iPET-1" source="ZGnwAykTWob0K404iPET-12" target="ZGnwAykTWob0K404iPET-18">
          <mxGeometry relative="1" as="geometry" />
        </mxCell>
        <mxCell id="ZGnwAykTWob0K404iPET-12" value="fork" style="whiteSpace=wrap;html=1;" vertex="1" parent="ZGnwAykTWob0K404iPET-1">
          <mxGeometry x="240" y="379" width="120" height="60" as="geometry" />
        </mxCell>
        <mxCell id="ZGnwAykTWob0K404iPET-13" value="" style="edgeStyle=orthogonalEdgeStyle;rounded=0;orthogonalLoop=1;jettySize=auto;html=1;" edge="1" parent="ZGnwAykTWob0K404iPET-1" source="ZGnwAykTWob0K404iPET-14" target="ZGnwAykTWob0K404iPET-21">
          <mxGeometry relative="1" as="geometry" />
        </mxCell>
        <mxCell id="ZGnwAykTWob0K404iPET-14" value="child&lt;div&gt;ls -l&lt;/div&gt;" style="whiteSpace=wrap;html=1;" vertex="1" parent="ZGnwAykTWob0K404iPET-1">
          <mxGeometry x="90" y="459" width="120" height="60" as="geometry" />
        </mxCell>
        <mxCell id="ZGnwAykTWob0K404iPET-15" style="edgeStyle=orthogonalEdgeStyle;rounded=0;orthogonalLoop=1;jettySize=auto;html=1;entryX=1;entryY=0.5;entryDx=0;entryDy=0;exitX=0;exitY=0;exitDx=0;exitDy=0;" edge="1" parent="ZGnwAykTWob0K404iPET-1" source="ZGnwAykTWob0K404iPET-18" target="ZGnwAykTWob0K404iPET-14">
          <mxGeometry relative="1" as="geometry" />
        </mxCell>
        <mxCell id="ZGnwAykTWob0K404iPET-16" value="wait" style="edgeLabel;html=1;align=center;verticalAlign=middle;resizable=0;points=[];" vertex="1" connectable="0" parent="ZGnwAykTWob0K404iPET-15">
          <mxGeometry x="-0.2192" relative="1" as="geometry">
            <mxPoint as="offset" />
          </mxGeometry>
        </mxCell>
        <mxCell id="ZGnwAykTWob0K404iPET-17" value="" style="edgeStyle=orthogonalEdgeStyle;rounded=0;orthogonalLoop=1;jettySize=auto;html=1;" edge="1" parent="ZGnwAykTWob0K404iPET-1" source="ZGnwAykTWob0K404iPET-18" target="ZGnwAykTWob0K404iPET-31">
          <mxGeometry relative="1" as="geometry" />
        </mxCell>
        <mxCell id="ZGnwAykTWob0K404iPET-18" value="parent:&lt;div&gt;grep &quot;.txt&quot;&lt;/div&gt;" style="whiteSpace=wrap;html=1;" vertex="1" parent="ZGnwAykTWob0K404iPET-1">
          <mxGeometry x="460" y="549" width="120" height="60" as="geometry" />
        </mxCell>
        <mxCell id="ZGnwAykTWob0K404iPET-19" value="" style="edgeStyle=orthogonalEdgeStyle;rounded=0;orthogonalLoop=1;jettySize=auto;html=1;" edge="1" parent="ZGnwAykTWob0K404iPET-1" source="ZGnwAykTWob0K404iPET-21" target="ZGnwAykTWob0K404iPET-24">
          <mxGeometry relative="1" as="geometry" />
        </mxCell>
        <mxCell id="ZGnwAykTWob0K404iPET-20" value="no" style="edgeLabel;html=1;align=center;verticalAlign=middle;resizable=0;points=[];" vertex="1" connectable="0" parent="ZGnwAykTWob0K404iPET-19">
          <mxGeometry x="-0.0743" y="1" relative="1" as="geometry">
            <mxPoint as="offset" />
          </mxGeometry>
        </mxCell>
        <mxCell id="ZGnwAykTWob0K404iPET-21" value="built-in?" style="rhombus;whiteSpace=wrap;html=1;" vertex="1" parent="ZGnwAykTWob0K404iPET-1">
          <mxGeometry x="110" y="539" width="80" height="80" as="geometry" />
        </mxCell>
        <mxCell id="ZGnwAykTWob0K404iPET-22" style="edgeStyle=orthogonalEdgeStyle;rounded=0;orthogonalLoop=1;jettySize=auto;html=1;entryX=0.5;entryY=0;entryDx=0;entryDy=0;exitX=0;exitY=0.5;exitDx=0;exitDy=0;" edge="1" parent="ZGnwAykTWob0K404iPET-1" source="ZGnwAykTWob0K404iPET-24" target="ZGnwAykTWob0K404iPET-27">
          <mxGeometry relative="1" as="geometry" />
        </mxCell>
        <mxCell id="ZGnwAykTWob0K404iPET-23" style="edgeStyle=orthogonalEdgeStyle;rounded=0;orthogonalLoop=1;jettySize=auto;html=1;exitX=1;exitY=0.5;exitDx=0;exitDy=0;entryX=0.5;entryY=0;entryDx=0;entryDy=0;" edge="1" parent="ZGnwAykTWob0K404iPET-1" source="ZGnwAykTWob0K404iPET-24" target="ZGnwAykTWob0K404iPET-29">
          <mxGeometry relative="1" as="geometry" />
        </mxCell>
        <mxCell id="ZGnwAykTWob0K404iPET-24" value="fork" style="whiteSpace=wrap;html=1;" vertex="1" parent="ZGnwAykTWob0K404iPET-1">
          <mxGeometry x="90" y="679" width="120" height="60" as="geometry" />
        </mxCell>
        <mxCell id="ZGnwAykTWob0K404iPET-25" style="edgeStyle=orthogonalEdgeStyle;rounded=0;orthogonalLoop=1;jettySize=auto;html=1;entryX=0;entryY=0.5;entryDx=0;entryDy=0;" edge="1" parent="ZGnwAykTWob0K404iPET-1" source="ZGnwAykTWob0K404iPET-27" target="ZGnwAykTWob0K404iPET-29">
          <mxGeometry relative="1" as="geometry" />
        </mxCell>
        <mxCell id="ZGnwAykTWob0K404iPET-26" value="pipe" style="edgeLabel;html=1;align=center;verticalAlign=middle;resizable=0;points=[];" vertex="1" connectable="0" parent="ZGnwAykTWob0K404iPET-25">
          <mxGeometry x="0.3543" y="-1" relative="1" as="geometry">
            <mxPoint as="offset" />
          </mxGeometry>
        </mxCell>
        <mxCell id="ZGnwAykTWob0K404iPET-27" value="child&lt;div&gt;execve(&quot;ls&quot;, &quot;-l&quot;)&lt;/div&gt;&lt;div&gt;using PATH&lt;/div&gt;" style="whiteSpace=wrap;html=1;" vertex="1" parent="ZGnwAykTWob0K404iPET-1">
          <mxGeometry x="10" y="769" width="120" height="60" as="geometry" />
        </mxCell>
        <mxCell id="ZGnwAykTWob0K404iPET-28" value="pipe" style="edgeStyle=orthogonalEdgeStyle;rounded=0;orthogonalLoop=1;jettySize=auto;html=1;entryX=0;entryY=0.5;entryDx=0;entryDy=0;" edge="1" parent="ZGnwAykTWob0K404iPET-1" source="ZGnwAykTWob0K404iPET-29" target="ZGnwAykTWob0K404iPET-36">
          <mxGeometry relative="1" as="geometry" />
        </mxCell>
        <mxCell id="ZGnwAykTWob0K404iPET-29" value="parent" style="whiteSpace=wrap;html=1;" vertex="1" parent="ZGnwAykTWob0K404iPET-1">
          <mxGeometry x="200" y="839" width="120" height="60" as="geometry" />
        </mxCell>
        <mxCell id="ZGnwAykTWob0K404iPET-30" value="no" style="edgeStyle=orthogonalEdgeStyle;rounded=0;orthogonalLoop=1;jettySize=auto;html=1;" edge="1" parent="ZGnwAykTWob0K404iPET-1" source="ZGnwAykTWob0K404iPET-31" target="ZGnwAykTWob0K404iPET-34">
          <mxGeometry relative="1" as="geometry" />
        </mxCell>
        <mxCell id="ZGnwAykTWob0K404iPET-31" value="built-in?" style="rhombus;whiteSpace=wrap;html=1;" vertex="1" parent="ZGnwAykTWob0K404iPET-1">
          <mxGeometry x="480" y="629" width="80" height="80" as="geometry" />
        </mxCell>
        <mxCell id="ZGnwAykTWob0K404iPET-32" value="" style="edgeStyle=orthogonalEdgeStyle;rounded=0;orthogonalLoop=1;jettySize=auto;html=1;" edge="1" parent="ZGnwAykTWob0K404iPET-1" source="ZGnwAykTWob0K404iPET-34" target="ZGnwAykTWob0K404iPET-36">
          <mxGeometry relative="1" as="geometry" />
        </mxCell>
        <mxCell id="ZGnwAykTWob0K404iPET-33" value="" style="edgeStyle=orthogonalEdgeStyle;rounded=0;orthogonalLoop=1;jettySize=auto;html=1;" edge="1" parent="ZGnwAykTWob0K404iPET-1" source="ZGnwAykTWob0K404iPET-34" target="ZGnwAykTWob0K404iPET-38">
          <mxGeometry relative="1" as="geometry" />
        </mxCell>
        <mxCell id="ZGnwAykTWob0K404iPET-34" value="fork" style="whiteSpace=wrap;html=1;" vertex="1" parent="ZGnwAykTWob0K404iPET-1">
          <mxGeometry x="460" y="754" width="120" height="60" as="geometry" />
        </mxCell>
        <mxCell id="ZGnwAykTWob0K404iPET-35" value="pipe" style="edgeStyle=orthogonalEdgeStyle;rounded=0;orthogonalLoop=1;jettySize=auto;html=1;" edge="1" parent="ZGnwAykTWob0K404iPET-1" source="ZGnwAykTWob0K404iPET-36" target="ZGnwAykTWob0K404iPET-38">
          <mxGeometry relative="1" as="geometry" />
        </mxCell>
        <mxCell id="ZGnwAykTWob0K404iPET-36" value="child&lt;div&gt;execve(&quot;grep&quot;, &quot;.txt&quot;) read from pipe??&lt;/div&gt;" style="whiteSpace=wrap;html=1;" vertex="1" parent="ZGnwAykTWob0K404iPET-1">
          <mxGeometry x="400" y="859" width="120" height="60" as="geometry" />
        </mxCell>
        <mxCell id="ZGnwAykTWob0K404iPET-37" value="" style="edgeStyle=orthogonalEdgeStyle;rounded=0;orthogonalLoop=1;jettySize=auto;html=1;" edge="1" parent="ZGnwAykTWob0K404iPET-1" source="ZGnwAykTWob0K404iPET-38" target="ZGnwAykTWob0K404iPET-40">
          <mxGeometry relative="1" as="geometry" />
        </mxCell>
        <mxCell id="ZGnwAykTWob0K404iPET-38" value="parent" style="whiteSpace=wrap;html=1;" vertex="1" parent="ZGnwAykTWob0K404iPET-1">
          <mxGeometry x="650" y="859" width="120" height="60" as="geometry" />
        </mxCell>
        <mxCell id="ZGnwAykTWob0K404iPET-39" value="" style="edgeStyle=orthogonalEdgeStyle;rounded=0;orthogonalLoop=1;jettySize=auto;html=1;" edge="1" parent="ZGnwAykTWob0K404iPET-1" source="ZGnwAykTWob0K404iPET-40" target="ZGnwAykTWob0K404iPET-41">
          <mxGeometry relative="1" as="geometry" />
        </mxCell>
        <mxCell id="ZGnwAykTWob0K404iPET-40" value="Print to&lt;span style=&quot;background-color: transparent; color: light-dark(rgb(0, 0, 0), rgb(255, 255, 255));&quot;&gt;&amp;nbsp;STDOUT&lt;/span&gt;" style="whiteSpace=wrap;html=1;" vertex="1" parent="ZGnwAykTWob0K404iPET-1">
          <mxGeometry x="650" y="999" width="120" height="60" as="geometry" />
        </mxCell>
        <mxCell id="ZGnwAykTWob0K404iPET-41" value="finished" style="ellipse;whiteSpace=wrap;html=1;" vertex="1" parent="ZGnwAykTWob0K404iPET-1">
          <mxGeometry x="670" y="1079" width="80" height="80" as="geometry" />
        </mxCell>
        <mxCell id="ZGnwAykTWob0K404iPET-42" style="edgeStyle=orthogonalEdgeStyle;rounded=0;orthogonalLoop=1;jettySize=auto;html=1;exitX=0.5;exitY=1;exitDx=0;exitDy=0;entryX=0.5;entryY=0;entryDx=0;entryDy=0;" edge="1" parent="ZGnwAykTWob0K404iPET-1" source="ZGnwAykTWob0K404iPET-43" target="ZGnwAykTWob0K404iPET-5">
          <mxGeometry relative="1" as="geometry" />
        </mxCell>
        <mxCell id="ZGnwAykTWob0K404iPET-43" value="START" style="ellipse;whiteSpace=wrap;html=1;" vertex="1" parent="ZGnwAykTWob0K404iPET-1">
          <mxGeometry x="250" y="-410" width="80" height="80" as="geometry" />
        </mxCell>
        <mxCell id="ZGnwAykTWob0K404iPET-44" value="" style="edgeStyle=orthogonalEdgeStyle;rounded=0;orthogonalLoop=1;jettySize=auto;html=1;" edge="1" parent="ZGnwAykTWob0K404iPET-1" source="ZGnwAykTWob0K404iPET-45" target="ZGnwAykTWob0K404iPET-49">
          <mxGeometry relative="1" as="geometry" />
        </mxCell>
        <mxCell id="ZGnwAykTWob0K404iPET-45" value="START" style="ellipse;whiteSpace=wrap;html=1;" vertex="1" parent="ZGnwAykTWob0K404iPET-1">
          <mxGeometry x="1310" y="-30" width="80" height="80" as="geometry" />
        </mxCell>
        <mxCell id="ZGnwAykTWob0K404iPET-46" value="" style="edgeStyle=orthogonalEdgeStyle;rounded=0;orthogonalLoop=1;jettySize=auto;html=1;" edge="1" parent="ZGnwAykTWob0K404iPET-1" source="ZGnwAykTWob0K404iPET-49" target="ZGnwAykTWob0K404iPET-56">
          <mxGeometry relative="1" as="geometry" />
        </mxCell>
        <mxCell id="ZGnwAykTWob0K404iPET-47" style="edgeStyle=orthogonalEdgeStyle;rounded=0;orthogonalLoop=1;jettySize=auto;html=1;" edge="1" parent="ZGnwAykTWob0K404iPET-1" source="ZGnwAykTWob0K404iPET-49" target="ZGnwAykTWob0K404iPET-54">
          <mxGeometry relative="1" as="geometry" />
        </mxCell>
        <mxCell id="ZGnwAykTWob0K404iPET-48" style="edgeStyle=orthogonalEdgeStyle;rounded=0;orthogonalLoop=1;jettySize=auto;html=1;exitX=0.5;exitY=1;exitDx=0;exitDy=0;entryX=0.5;entryY=0;entryDx=0;entryDy=0;" edge="1" parent="ZGnwAykTWob0K404iPET-1" source="ZGnwAykTWob0K404iPET-49" target="ZGnwAykTWob0K404iPET-63">
          <mxGeometry relative="1" as="geometry" />
        </mxCell>
        <mxCell id="ZGnwAykTWob0K404iPET-49" value="&lt;div&gt;mkdir backup &amp;amp;&amp;amp; mv important_file.txt backup/&lt;/div&gt;&lt;div&gt;&lt;br&gt;&lt;/div&gt;" style="whiteSpace=wrap;html=1;" vertex="1" parent="ZGnwAykTWob0K404iPET-1">
          <mxGeometry x="1230" y="70" width="240" height="50" as="geometry" />
        </mxCell>
        <mxCell id="ZGnwAykTWob0K404iPET-50" value="" style="edgeStyle=orthogonalEdgeStyle;rounded=0;orthogonalLoop=1;jettySize=auto;html=1;" edge="1" parent="ZGnwAykTWob0K404iPET-1" source="ZGnwAykTWob0K404iPET-54" target="ZGnwAykTWob0K404iPET-60">
          <mxGeometry relative="1" as="geometry" />
        </mxCell>
        <mxCell id="ZGnwAykTWob0K404iPET-51" value="" style="edgeStyle=orthogonalEdgeStyle;rounded=0;orthogonalLoop=1;jettySize=auto;html=1;" edge="1" parent="ZGnwAykTWob0K404iPET-1" source="ZGnwAykTWob0K404iPET-54" target="ZGnwAykTWob0K404iPET-60">
          <mxGeometry relative="1" as="geometry" />
        </mxCell>
        <mxCell id="ZGnwAykTWob0K404iPET-52" value="" style="edgeStyle=orthogonalEdgeStyle;rounded=0;orthogonalLoop=1;jettySize=auto;html=1;" edge="1" parent="ZGnwAykTWob0K404iPET-1" source="ZGnwAykTWob0K404iPET-54" target="ZGnwAykTWob0K404iPET-60">
          <mxGeometry relative="1" as="geometry" />
        </mxCell>
        <mxCell id="ZGnwAykTWob0K404iPET-53" value="" style="edgeStyle=orthogonalEdgeStyle;rounded=0;orthogonalLoop=1;jettySize=auto;html=1;" edge="1" parent="ZGnwAykTWob0K404iPET-1" source="ZGnwAykTWob0K404iPET-54" target="ZGnwAykTWob0K404iPET-66">
          <mxGeometry relative="1" as="geometry" />
        </mxCell>
        <mxCell id="ZGnwAykTWob0K404iPET-54" value="commands" style="whiteSpace=wrap;html=1;" vertex="1" parent="ZGnwAykTWob0K404iPET-1">
          <mxGeometry x="1200" y="160" width="120" height="60" as="geometry" />
        </mxCell>
        <mxCell id="ZGnwAykTWob0K404iPET-55" value="" style="edgeStyle=orthogonalEdgeStyle;rounded=0;orthogonalLoop=1;jettySize=auto;html=1;" edge="1" parent="ZGnwAykTWob0K404iPET-1" source="ZGnwAykTWob0K404iPET-56" target="ZGnwAykTWob0K404iPET-58">
          <mxGeometry relative="1" as="geometry" />
        </mxCell>
        <mxCell id="ZGnwAykTWob0K404iPET-56" value="operators:" style="whiteSpace=wrap;html=1;" vertex="1" parent="ZGnwAykTWob0K404iPET-1">
          <mxGeometry x="1390" y="160" width="120" height="60" as="geometry" />
        </mxCell>
        <mxCell id="ZGnwAykTWob0K404iPET-57" value="" style="edgeStyle=orthogonalEdgeStyle;rounded=0;orthogonalLoop=1;jettySize=auto;html=1;" edge="1" parent="ZGnwAykTWob0K404iPET-1" source="ZGnwAykTWob0K404iPET-58" target="ZGnwAykTWob0K404iPET-70">
          <mxGeometry relative="1" as="geometry" />
        </mxCell>
        <mxCell id="ZGnwAykTWob0K404iPET-58" value="&amp;amp;&amp;amp;" style="whiteSpace=wrap;html=1;" vertex="1" parent="ZGnwAykTWob0K404iPET-1">
          <mxGeometry x="1390" y="340" width="120" height="60" as="geometry" />
        </mxCell>
        <mxCell id="ZGnwAykTWob0K404iPET-59" style="edgeStyle=orthogonalEdgeStyle;rounded=0;orthogonalLoop=1;jettySize=auto;html=1;entryX=1;entryY=0.5;entryDx=0;entryDy=0;" edge="1" parent="ZGnwAykTWob0K404iPET-1" source="ZGnwAykTWob0K404iPET-60" target="ZGnwAykTWob0K404iPET-64">
          <mxGeometry relative="1" as="geometry" />
        </mxCell>
        <mxCell id="ZGnwAykTWob0K404iPET-60" value="mkdir" style="whiteSpace=wrap;html=1;" vertex="1" parent="ZGnwAykTWob0K404iPET-1">
          <mxGeometry x="1200" y="250" width="120" height="60" as="geometry" />
        </mxCell>
        <mxCell id="ZGnwAykTWob0K404iPET-61" value="" style="edgeStyle=orthogonalEdgeStyle;rounded=0;orthogonalLoop=1;jettySize=auto;html=1;" edge="1" parent="ZGnwAykTWob0K404iPET-1" source="ZGnwAykTWob0K404iPET-63" target="ZGnwAykTWob0K404iPET-64">
          <mxGeometry relative="1" as="geometry" />
        </mxCell>
        <mxCell id="ZGnwAykTWob0K404iPET-62" value="" style="edgeStyle=orthogonalEdgeStyle;rounded=0;orthogonalLoop=1;jettySize=auto;html=1;" edge="1" parent="ZGnwAykTWob0K404iPET-1" source="ZGnwAykTWob0K404iPET-63" target="ZGnwAykTWob0K404iPET-67">
          <mxGeometry relative="1" as="geometry" />
        </mxCell>
        <mxCell id="ZGnwAykTWob0K404iPET-63" value="arguments" style="whiteSpace=wrap;html=1;" vertex="1" parent="ZGnwAykTWob0K404iPET-1">
          <mxGeometry x="1000" y="160" width="120" height="60" as="geometry" />
        </mxCell>
        <mxCell id="ZGnwAykTWob0K404iPET-64" value="&quot;backup&quot;" style="whiteSpace=wrap;html=1;" vertex="1" parent="ZGnwAykTWob0K404iPET-1">
          <mxGeometry x="1000" y="250" width="120" height="60" as="geometry" />
        </mxCell>
        <mxCell id="ZGnwAykTWob0K404iPET-65" style="edgeStyle=orthogonalEdgeStyle;rounded=0;orthogonalLoop=1;jettySize=auto;html=1;" edge="1" parent="ZGnwAykTWob0K404iPET-1" source="ZGnwAykTWob0K404iPET-66">
          <mxGeometry relative="1" as="geometry">
            <mxPoint x="1120.0000000000002" y="370" as="targetPoint" />
          </mxGeometry>
        </mxCell>
        <mxCell id="ZGnwAykTWob0K404iPET-66" value="mv" style="whiteSpace=wrap;html=1;" vertex="1" parent="ZGnwAykTWob0K404iPET-1">
          <mxGeometry x="1200" y="340" width="120" height="60" as="geometry" />
        </mxCell>
        <mxCell id="ZGnwAykTWob0K404iPET-67" value="&quot;important_file.txt&quot;&lt;div&gt;&quot;backup/&quot;&lt;/div&gt;" style="whiteSpace=wrap;html=1;" vertex="1" parent="ZGnwAykTWob0K404iPET-1">
          <mxGeometry x="1000" y="340" width="120" height="60" as="geometry" />
        </mxCell>
        <mxCell id="ZGnwAykTWob0K404iPET-68" value="" style="edgeStyle=orthogonalEdgeStyle;rounded=0;orthogonalLoop=1;jettySize=auto;html=1;" edge="1" parent="ZGnwAykTWob0K404iPET-1" source="ZGnwAykTWob0K404iPET-70" target="ZGnwAykTWob0K404iPET-72">
          <mxGeometry relative="1" as="geometry" />
        </mxCell>
        <mxCell id="ZGnwAykTWob0K404iPET-69" value="" style="edgeStyle=orthogonalEdgeStyle;rounded=0;orthogonalLoop=1;jettySize=auto;html=1;" edge="1" parent="ZGnwAykTWob0K404iPET-1" source="ZGnwAykTWob0K404iPET-70" target="ZGnwAykTWob0K404iPET-79">
          <mxGeometry relative="1" as="geometry" />
        </mxCell>
        <mxCell id="ZGnwAykTWob0K404iPET-70" value="fork" style="whiteSpace=wrap;html=1;" vertex="1" parent="ZGnwAykTWob0K404iPET-1">
          <mxGeometry x="1390" y="420" width="120" height="60" as="geometry" />
        </mxCell>
        <mxCell id="ZGnwAykTWob0K404iPET-71" value="" style="edgeStyle=orthogonalEdgeStyle;rounded=0;orthogonalLoop=1;jettySize=auto;html=1;" edge="1" parent="ZGnwAykTWob0K404iPET-1" source="ZGnwAykTWob0K404iPET-72" target="ZGnwAykTWob0K404iPET-74">
          <mxGeometry relative="1" as="geometry" />
        </mxCell>
        <mxCell id="ZGnwAykTWob0K404iPET-72" value="child&lt;div&gt;mkdir backup&lt;/div&gt;" style="whiteSpace=wrap;html=1;" vertex="1" parent="ZGnwAykTWob0K404iPET-1">
          <mxGeometry x="1210" y="455" width="120" height="60" as="geometry" />
        </mxCell>
        <mxCell id="ZGnwAykTWob0K404iPET-73" value="no" style="edgeStyle=orthogonalEdgeStyle;rounded=0;orthogonalLoop=1;jettySize=auto;html=1;" edge="1" parent="ZGnwAykTWob0K404iPET-1" source="ZGnwAykTWob0K404iPET-74" target="ZGnwAykTWob0K404iPET-76">
          <mxGeometry relative="1" as="geometry" />
        </mxCell>
        <mxCell id="ZGnwAykTWob0K404iPET-74" value="built-in?" style="rhombus;whiteSpace=wrap;html=1;" vertex="1" parent="ZGnwAykTWob0K404iPET-1">
          <mxGeometry x="1230" y="535" width="80" height="80" as="geometry" />
        </mxCell>
        <mxCell id="ZGnwAykTWob0K404iPET-75" value="" style="edgeStyle=orthogonalEdgeStyle;rounded=0;orthogonalLoop=1;jettySize=auto;html=1;" edge="1" parent="ZGnwAykTWob0K404iPET-1" source="ZGnwAykTWob0K404iPET-76" target="ZGnwAykTWob0K404iPET-80">
          <mxGeometry relative="1" as="geometry" />
        </mxCell>
        <mxCell id="ZGnwAykTWob0K404iPET-76" value="&lt;div&gt;fork&lt;/div&gt;execve&lt;div&gt;mkdir&lt;/div&gt;&lt;div&gt;&quot;backup&quot;&lt;/div&gt;" style="whiteSpace=wrap;html=1;" vertex="1" parent="ZGnwAykTWob0K404iPET-1">
          <mxGeometry x="1210" y="670" width="120" height="95" as="geometry" />
        </mxCell>
        <mxCell id="ZGnwAykTWob0K404iPET-77" value="wait" style="edgeStyle=orthogonalEdgeStyle;rounded=0;orthogonalLoop=1;jettySize=auto;html=1;exitX=0;exitY=1;exitDx=0;exitDy=0;entryX=1;entryY=0.5;entryDx=0;entryDy=0;" edge="1" parent="ZGnwAykTWob0K404iPET-1" source="ZGnwAykTWob0K404iPET-79" target="ZGnwAykTWob0K404iPET-80">
          <mxGeometry relative="1" as="geometry">
            <Array as="points">
              <mxPoint x="1430" y="515" />
              <mxPoint x="1430" y="830" />
            </Array>
          </mxGeometry>
        </mxCell>
        <mxCell id="ZGnwAykTWob0K404iPET-78" value="" style="edgeStyle=orthogonalEdgeStyle;rounded=0;orthogonalLoop=1;jettySize=auto;html=1;" edge="1" parent="ZGnwAykTWob0K404iPET-1" source="ZGnwAykTWob0K404iPET-79" target="ZGnwAykTWob0K404iPET-82">
          <mxGeometry relative="1" as="geometry" />
        </mxCell>
        <mxCell id="ZGnwAykTWob0K404iPET-79" value="parent" style="whiteSpace=wrap;html=1;" vertex="1" parent="ZGnwAykTWob0K404iPET-1">
          <mxGeometry x="1560" y="455" width="120" height="60" as="geometry" />
        </mxCell>
        <mxCell id="ZGnwAykTWob0K404iPET-80" value="succesfull?" style="rhombus;whiteSpace=wrap;html=1;" vertex="1" parent="ZGnwAykTWob0K404iPET-1">
          <mxGeometry x="1230" y="790" width="80" height="80" as="geometry" />
        </mxCell>
        <mxCell id="ZGnwAykTWob0K404iPET-81" value="no" style="edgeStyle=orthogonalEdgeStyle;rounded=0;orthogonalLoop=1;jettySize=auto;html=1;" edge="1" parent="ZGnwAykTWob0K404iPET-1" source="ZGnwAykTWob0K404iPET-82" target="ZGnwAykTWob0K404iPET-83">
          <mxGeometry relative="1" as="geometry" />
        </mxCell>
        <mxCell id="ZGnwAykTWob0K404iPET-82" value="built-in?" style="rhombus;whiteSpace=wrap;html=1;" vertex="1" parent="ZGnwAykTWob0K404iPET-1">
          <mxGeometry x="1580" y="545" width="80" height="80" as="geometry" />
        </mxCell>
        <mxCell id="ZGnwAykTWob0K404iPET-83" value="" style="whiteSpace=wrap;html=1;" vertex="1" parent="ZGnwAykTWob0K404iPET-1">
          <mxGeometry x="1560" y="715" width="120" height="60" as="geometry" />
        </mxCell>
        <mxCell id="3naTx4C98SWmQ76nB2lP-0" value="&lt;div&gt;&lt;b&gt;Tokenizer&lt;/b&gt;&lt;/div&gt;&lt;font style=&quot;font-size: 9px;&quot;&gt;Breaks input into&lt;br&gt;meaningful tokens&lt;/font&gt;" style="shape=step;perimeter=stepPerimeter;whiteSpace=wrap;html=1;fixedSize=1;" vertex="1" parent="ZGnwAykTWob0K404iPET-1">
          <mxGeometry x="-230" y="-180" width="120" height="80" as="geometry" />
        </mxCell>
        <mxCell id="3naTx4C98SWmQ76nB2lP-2" value="" style="edgeStyle=orthogonalEdgeStyle;rounded=0;orthogonalLoop=1;jettySize=auto;html=1;exitX=0.5;exitY=1;exitDx=0;exitDy=0;entryX=0.431;entryY=0;entryDx=0;entryDy=0;entryPerimeter=0;" edge="1" parent="ZGnwAykTWob0K404iPET-1" source="ZGnwAykTWob0K404iPET-5" target="3naTx4C98SWmQ76nB2lP-4">
          <mxGeometry relative="1" as="geometry">
            <mxPoint x="290" y="-235" as="sourcePoint" />
            <mxPoint x="290" y="-210" as="targetPoint" />
          </mxGeometry>
        </mxCell>
        <mxCell id="3naTx4C98SWmQ76nB2lP-4" value="&lt;div align=&quot;right&quot;&gt;char **input = &lt;span style=&quot;white-space: pre;&quot;&gt;&#x9;&lt;span style=&quot;white-space: pre;&quot;&gt;&#x9;&lt;span style=&quot;white-space: pre;&quot;&gt;&#x9;&lt;span style=&quot;white-space: pre;&quot;&gt;&#x9;&lt;/span&gt;&lt;/span&gt;&lt;span style=&quot;white-space: pre;&quot;&gt;&#x9;&lt;/span&gt;&lt;/span&gt;&lt;/span&gt;{token0,&lt;span style=&quot;white-space: pre;&quot;&gt;&#x9;&lt;/span&gt;&lt;span style=&quot;white-space: pre;&quot;&gt;&#x9;&lt;span style=&quot;white-space: pre;&quot;&gt;&#x9;&lt;span style=&quot;white-space: pre;&quot;&gt;&#x9;&lt;/span&gt;&lt;/span&gt;&lt;/span&gt;token1,&lt;span style=&quot;white-space: pre;&quot;&gt;&#x9;&lt;/span&gt;&lt;span style=&quot;white-space: pre;&quot;&gt;&#x9;&lt;span style=&quot;white-space: pre;&quot;&gt;&#x9;&lt;/span&gt;&lt;span style=&quot;white-space: pre;&quot;&gt;&#x9;&lt;/span&gt;&lt;/span&gt;token2,&lt;span style=&quot;white-space: pre;&quot;&gt;&#x9;&lt;span style=&quot;white-space: pre;&quot;&gt;&#x9;&lt;/span&gt;&lt;span style=&quot;white-space: pre;&quot;&gt;&#x9;&lt;/span&gt;&lt;span style=&quot;white-space: pre;&quot;&gt;&#x9;&lt;/span&gt;&lt;/span&gt;NULL}; &lt;/div&gt;" style="rounded=0;whiteSpace=wrap;html=1;" vertex="1" parent="ZGnwAykTWob0K404iPET-1">
          <mxGeometry x="10" y="-170" width="650" height="30" as="geometry" />
        </mxCell>
        <mxCell id="3naTx4C98SWmQ76nB2lP-5" value="&lt;div align=&quot;left&quot;&gt;type = PIPE;&lt;/div&gt;&lt;div&gt;value = {&quot;|&quot;, NULL};&lt;/div&gt;" style="rounded=0;whiteSpace=wrap;html=1;" vertex="1" parent="ZGnwAykTWob0K404iPET-1">
          <mxGeometry x="300" y="-120" width="120" height="60" as="geometry" />
        </mxCell>
        <mxCell id="3naTx4C98SWmQ76nB2lP-6" value="&lt;div align=&quot;left&quot;&gt;type = COMMAND;&lt;/div&gt;&lt;div align=&quot;left&quot;&gt;value = {&quot;ls&quot;, &quot;-l&quot;, NULL};&lt;/div&gt;" style="rounded=0;whiteSpace=wrap;html=1;align=left;" vertex="1" parent="ZGnwAykTWob0K404iPET-1">
          <mxGeometry x="96" y="-120" width="134" height="60" as="geometry" />
        </mxCell>
        <mxCell id="3naTx4C98SWmQ76nB2lP-7" value="&lt;div align=&quot;left&quot;&gt;type = COMMAND;&lt;/div&gt;&lt;div align=&quot;left&quot;&gt;value = {&quot;grep&quot;, &quot;&quot;.txt&quot;&quot;, NULL};&lt;/div&gt;" style="rounded=0;whiteSpace=wrap;html=1;align=left;" vertex="1" parent="ZGnwAykTWob0K404iPET-1">
          <mxGeometry x="460" y="-120" width="180" height="60" as="geometry" />
        </mxCell>
        <mxCell id="3naTx4C98SWmQ76nB2lP-8" value="&lt;div&gt;&lt;b&gt;Parser&lt;/b&gt;&lt;/div&gt;&lt;font style=&quot;font-size: 10px;&quot;&gt;&amp;nbsp;&amp;nbsp;&amp;nbsp;&amp;nbsp; Builds a syntax tree&lt;br&gt;from the input&lt;/font&gt;" style="shape=step;perimeter=stepPerimeter;whiteSpace=wrap;html=1;fixedSize=1;" vertex="1" parent="ZGnwAykTWob0K404iPET-1">
          <mxGeometry x="-230" y="-10" width="120" height="80" as="geometry" />
        </mxCell>
        <mxCell id="3naTx4C98SWmQ76nB2lP-11" value="[NODE_PIPE]" style="ellipse;whiteSpace=wrap;html=1;" vertex="1" parent="ZGnwAykTWob0K404iPET-1">
          <mxGeometry x="230" y="-50" width="120" height="80" as="geometry" />
        </mxCell>
        <mxCell id="3naTx4C98SWmQ76nB2lP-12" value="[NODE_COMMAND]&lt;br&gt;value = {&quot;ls&quot;, &quot;-l&quot;, NULL}" style="ellipse;whiteSpace=wrap;html=1;" vertex="1" parent="ZGnwAykTWob0K404iPET-1">
          <mxGeometry x="90" y="50" width="180" height="80" as="geometry" />
        </mxCell>
        <mxCell id="3naTx4C98SWmQ76nB2lP-13" value="[NODE_COMMAND]&lt;br&gt;value = {&quot;grep&quot;, &quot;&quot;.txt&quot;&quot;, NULL};" style="ellipse;whiteSpace=wrap;html=1;" vertex="1" parent="ZGnwAykTWob0K404iPET-1">
          <mxGeometry x="310" y="50" width="180" height="80" as="geometry" />
        </mxCell>
        <mxCell id="3naTx4C98SWmQ76nB2lP-16" value="" style="endArrow=none;html=1;rounded=0;" edge="1" parent="ZGnwAykTWob0K404iPET-1" source="3naTx4C98SWmQ76nB2lP-11" target="3naTx4C98SWmQ76nB2lP-12">
          <mxGeometry width="50" height="50" relative="1" as="geometry">
            <mxPoint x="340" y="40" as="sourcePoint" />
            <mxPoint x="390" y="-10" as="targetPoint" />
          </mxGeometry>
        </mxCell>
        <mxCell id="3naTx4C98SWmQ76nB2lP-17" value="" style="endArrow=none;html=1;rounded=0;exitX=1;exitY=1;exitDx=0;exitDy=0;" edge="1" parent="ZGnwAykTWob0K404iPET-1" source="3naTx4C98SWmQ76nB2lP-11" target="3naTx4C98SWmQ76nB2lP-13">
          <mxGeometry width="50" height="50" relative="1" as="geometry">
            <mxPoint x="340" y="40" as="sourcePoint" />
            <mxPoint x="390" y="-10" as="targetPoint" />
          </mxGeometry>
        </mxCell>
        <mxCell id="3naTx4C98SWmQ76nB2lP-19" value="" style="endArrow=none;dashed=1;html=1;dashPattern=1 3;strokeWidth=2;rounded=0;exitX=0.813;exitY=-0.067;exitDx=0;exitDy=0;exitPerimeter=0;" edge="1" parent="ZGnwAykTWob0K404iPET-1" source="3naTx4C98SWmQ76nB2lP-6">
          <mxGeometry width="50" height="50" relative="1" as="geometry">
            <mxPoint x="185" y="-110" as="sourcePoint" />
            <mxPoint x="220" y="-140" as="targetPoint" />
          </mxGeometry>
        </mxCell>
        <mxCell id="3naTx4C98SWmQ76nB2lP-20" value="" style="endArrow=none;dashed=1;html=1;dashPattern=1 3;strokeWidth=2;rounded=0;entryX=0.543;entryY=0.967;entryDx=0;entryDy=0;entryPerimeter=0;exitX=0.5;exitY=0;exitDx=0;exitDy=0;" edge="1" parent="ZGnwAykTWob0K404iPET-1" source="3naTx4C98SWmQ76nB2lP-5" target="3naTx4C98SWmQ76nB2lP-4">
          <mxGeometry width="50" height="50" relative="1" as="geometry">
            <mxPoint x="340" y="-50" as="sourcePoint" />
            <mxPoint x="390" y="-100" as="targetPoint" />
          </mxGeometry>
        </mxCell>
        <mxCell id="3naTx4C98SWmQ76nB2lP-21" value="" style="endArrow=none;dashed=1;html=1;dashPattern=1 3;strokeWidth=2;rounded=0;exitX=0.738;exitY=1;exitDx=0;exitDy=0;exitPerimeter=0;entryX=0.3;entryY=0;entryDx=0;entryDy=0;entryPerimeter=0;" edge="1" parent="ZGnwAykTWob0K404iPET-1" source="3naTx4C98SWmQ76nB2lP-4" target="3naTx4C98SWmQ76nB2lP-7">
          <mxGeometry width="50" height="50" relative="1" as="geometry">
            <mxPoint x="420" y="-30" as="sourcePoint" />
            <mxPoint x="390" y="-100" as="targetPoint" />
          </mxGeometry>
        </mxCell>
        <mxCell id="3naTx4C98SWmQ76nB2lP-26" value="" style="endArrow=classic;html=1;rounded=0;exitX=0.431;exitY=1.033;exitDx=0;exitDy=0;exitPerimeter=0;entryX=0.5;entryY=0;entryDx=0;entryDy=0;" edge="1" parent="ZGnwAykTWob0K404iPET-1" source="3naTx4C98SWmQ76nB2lP-4" target="3naTx4C98SWmQ76nB2lP-11">
          <mxGeometry width="50" height="50" relative="1" as="geometry">
            <mxPoint x="340" y="-50" as="sourcePoint" />
            <mxPoint x="390" y="-100" as="targetPoint" />
          </mxGeometry>
        </mxCell>
        <mxCell id="3naTx4C98SWmQ76nB2lP-28" value="" style="endArrow=none;dashed=1;html=1;rounded=0;" edge="1" parent="ZGnwAykTWob0K404iPET-1">
          <mxGeometry width="50" height="50" relative="1" as="geometry">
            <mxPoint x="830" y="254" as="sourcePoint" />
            <mxPoint x="-370" y="254" as="targetPoint" />
          </mxGeometry>
        </mxCell>
        <mxCell id="3naTx4C98SWmQ76nB2lP-29" value="&lt;b&gt;Expander&lt;/b&gt;&lt;div&gt;&lt;font style=&quot;font-size: 10px;&quot;&gt;&amp;nbsp;&amp;nbsp;&amp;nbsp; Expands variables, &lt;br&gt;globs, and &lt;br&gt;substitutions&lt;/font&gt;&lt;/div&gt;" style="shape=step;perimeter=stepPerimeter;whiteSpace=wrap;html=1;fixedSize=1;" vertex="1" parent="ZGnwAykTWob0K404iPET-1">
          <mxGeometry x="-230" y="140" width="120" height="80" as="geometry" />
        </mxCell>
        <mxCell id="3naTx4C98SWmQ76nB2lP-64" style="edgeStyle=orthogonalEdgeStyle;rounded=0;orthogonalLoop=1;jettySize=auto;html=1;entryX=0.417;entryY=0.017;entryDx=0;entryDy=0;entryPerimeter=0;" edge="1" parent="ZGnwAykTWob0K404iPET-1" source="3naTx4C98SWmQ76nB2lP-11" target="ZGnwAykTWob0K404iPET-9">
          <mxGeometry relative="1" as="geometry" />
        </mxCell>
        <mxCell id="3naTx4C98SWmQ76nB2lP-65" value="&lt;font&gt;&lt;b&gt;Executor&lt;/b&gt;&lt;/font&gt;&lt;div&gt;&lt;font style=&quot;font-size: 10px;&quot;&gt;&amp;nbsp;&amp;nbsp;&amp;nbsp; &lt;/font&gt;&lt;font style=&quot;font-size: 10px;&quot;&gt;Runs built-in or&lt;br&gt; external commands&lt;/font&gt;&lt;/div&gt;" style="shape=step;perimeter=stepPerimeter;whiteSpace=wrap;html=1;fixedSize=1;" vertex="1" parent="ZGnwAykTWob0K404iPET-1">
          <mxGeometry x="-230" y="490" width="120" height="80" as="geometry" />
        </mxCell>
      </root>
    </mxGraphModel>
  </diagram>
</mxfile>
